Chivo-Black.ufo
<glyph name="quotedbl" format="1">
  <advance width="434"/>
  <unicode hex="0022"/>
  <outline>
    <contour>
      <point x="241" y="686" type="line"/>
      <point x="241" y="539" type="line"/>
      <point x="288" y="396" type="line"/>
      <point x="348" y="396" type="line"/>
      <point x="396" y="539" type="line"/>
      <point x="396" y="686" type="line"/>
    </contour>
    <contour>
      <point x="38" y="686" type="line"/>
      <point x="38" y="539" type="line"/>
      <point x="85" y="396" type="line"/>
      <point x="146" y="396" type="line"/>
      <point x="193" y="539" type="line"/>
      <point x="193" y="686" type="line"/>
    </contour>
  </outline>
</glyph>
<glyph name="numbersign" format="1">
  <advance width="662"/>
  <unicode hex="0023"/>
  <outline>
    <contour>
      <point x="470" y="696" type="line"/>
      <point x="427" y="502" type="line"/>
      <point x="317" y="502" type="line"/>
      <point x="361" y="696" type="line"/>
      <point x="242" y="696" type="line"/>
      <point x="199" y="502" type="line"/>
      <point x="72" y="502" type="line"/>
      <point x="72" y="394" type="line"/>
      <point x="178" y="394" type="line"/>
      <point x="150" y="273" type="line"/>
      <point x="27" y="273" type="line"/>
      <point x="27" y="166" type="line"/>
      <point x="125" y="166" type="line"/>
      <point x="90" y="0" type="line"/>
      <point x="207" y="0" type="line"/>
      <point x="242" y="166" type="line"/>
      <point x="354" y="166" type="line"/>
      <point x="318" y="0" type="line"/>
      <point x="434" y="0" type="line"/>
      <point x="470" y="166" type="line"/>
      <point x="601" y="166" type="line"/>
      <point x="601" y="273" type="line"/>
      <point x="497" y="273" type="line"/>
      <point x="523" y="394" type="line"/>
      <point x="633" y="394" type="line"/>
      <point x="633" y="502" type="line"/>
      <point x="542" y="502" type="line"/>
      <point x="587" y="696" type="line"/>
    </contour>
    <contour>
      <point x="379" y="272" type="line"/>
      <point x="266" y="272" type="line"/>
      <point x="293" y="393" type="line"/>
      <point x="407" y="393" type="line"/>
    </contour>
  </outline>
</glyph>
<glyph name="parenleft" format="1">
  <advance width="313"/>
  <unicode hex="0028"/>
  <outline>
    <contour>
      <point x="189" y="686" type="line"/>
      <point x="86" y="569"/>
      <point x="30" y="420"/>
      <point x="30" y="264" type="curve" smooth="yes"/>
      <point x="30" y="108"/>
      <point x="86" y="-41"/>
      <point x="189" y="-158" type="curve"/>
      <point x="297" y="-158" type="line"/>
      <point x="230" y="-43"/>
      <point x="186" y="132"/>
      <point x="186" y="265" type="curve" smooth="yes"/>
      <point x="186" y="400"/>
      <point x="231" y="569"/>
      <point x="297" y="686" type="curve"/>
    </contour>
  </outline>
</glyph>
<glyph name="asterisk" format="1">
  <advance width="506"/>
  <unicode hex="002A"/>
  <outline>
    <contour>
      <point x="192" y="686" type="line"/>
      <point x="205" y="533" type="line"/>
      <point x="65" y="593" type="line"/>
      <point x="26" y="483" type="line"/>
      <point x="173" y="448" type="line"/>
      <point x="73" y="335" type="line"/>
      <point x="173" y="265" type="line"/>
      <point x="251" y="396" type="line"/>
      <point x="330" y="265" type="line"/>
      <point x="430" y="335" type="line"/>
      <point x="330" y="448" type="line"/>
      <point x="480" y="483" type="line"/>
      <point x="445" y="593" type="line"/>
      <point x="297" y="533" type="line"/>
      <point x="312" y="686" type="line"/>
    </contour>
  </outline>
</glyph>
<glyph name="hyphen" format="1">
  <advance width="352"/>
  <unicode hex="002D"/>
  <outline>
    <contour>
      <point x="49" y="354" type="line"/>
      <point x="49" y="196" type="line"/>
      <point x="303" y="196" type="line"/>
      <point x="303" y="354" type="line"/>
    </contour>
  </outline>
</glyph>
<glyph name="period" format="1">
  <advance width="287"/>
  <unicode hex="002E"/>
  <outline>
    <contour>
      <point x="48" y="183" type="line"/>
      <point x="48" y="0" type="line"/>
      <point x="239" y="0" type="line"/>
      <point x="239" y="183" type="line"/>
    </contour>
  </outline>
</glyph>
<glyph name="slash" format="1">
  <advance width="652"/>
  <unicode hex="002F"/>
  <outline>
    <contour>
      <point x="506" y="686" type="line"/>
      <point x="16" y="-171" type="line"/>
      <point x="148" y="-171" type="line"/>
      <point x="637" y="686" type="line"/>
    </contour>
  </outline>
</glyph>
<glyph name="four" format="1">
  <advance width="615"/>
  <unicode hex="0034"/>
  <outline>
    <contour>
      <point x="178" y="696" type="line"/>
      <point x="168" y="648"/>
      <point x="142" y="571"/>
      <point x="111" y="494" type="curve" smooth="yes"/>
      <point x="81" y="420" type="line" smooth="yes"/>
      <point x="61" y="371"/>
      <point x="38" y="329"/>
      <point x="22" y="300" type="curve"/>
      <point x="22" y="151" type="line"/>
      <point x="302" y="151" type="line"/>
      <point x="302" y="0" type="line"/>
      <point x="490" y="0" type="line"/>
      <point x="490" y="151" type="line"/>
      <point x="588" y="151" type="line"/>
      <point x="588" y="298" type="line"/>
      <point x="490" y="298" type="line"/>
      <point x="490" y="630" type="line"/>
      <point x="407" y="630" type="line"/>
      <point x="394" y="574"/>
      <point x="337" y="448"/>
      <point x="302" y="400" type="curve"/>
      <point x="302" y="298" type="line"/>
      <point x="152" y="298" type="line"/>
      <point x="223" y="380"/>
      <point x="339" y="592"/>
      <point x="355" y="696" type="curve"/>
    </contour>
  </outline>
</glyph>
<glyph name="seven" format="1">
  <advance width="615"/>
  <unicode hex="0037"/>
  <outline>
    <contour>
      <point x="61" y="686" type="line"/>
      <point x="61" y="514" type="line"/>
      <point x="353" y="514" type="line"/>
      <point x="240" y="367"/>
      <point x="129" y="191"/>
      <point x="129" y="0" type="curve"/>
      <point x="351" y="0" type="line"/>
      <point x="351" y="59" type="line" smooth="yes"/>
      <point x="351" y="261"/>
      <point x="456" y="438"/>
      <point x="570" y="595" type="curve"/>
      <point x="570" y="686" type="line"/>
    </contour>
  </outline>
</glyph>
<glyph name="nine" format="1">
  <advance width="615"/>
  <unicode hex="0039"/>
  <outline>
    <contour>
      <point x="288" y="696" type="line" smooth="yes"/>
      <point x="144" y="696"/>
      <point x="30" y="599"/>
      <point x="30" y="456" type="curve" smooth="yes"/>
      <point x="30" y="319"/>
      <point x="130" y="249"/>
      <point x="254" y="249" type="curve" smooth="yes"/>
      <point x="291" y="249"/>
      <point x="344" y="264"/>
      <point x="379" y="301" type="curve"/>
      <point x="379" y="215" type="line" smooth="yes"/>
      <point x="379" y="174"/>
      <point x="343" y="140"/>
      <point x="302" y="140" type="curve" smooth="yes"/>
      <point x="296" y="140" type="line" smooth="yes"/>
      <point x="255" y="140"/>
      <point x="225" y="174"/>
      <point x="225" y="215" type="curve" smooth="yes"/>
      <point x="225" y="220" type="line"/>
      <point x="47" y="220" type="line"/>
      <point x="47" y="68"/>
      <point x="159" y="-10"/>
      <point x="288" y="-10" type="curve" smooth="yes"/>
      <point x="316" y="-10" type="line" smooth="yes"/>
      <point x="460" y="-10"/>
      <point x="576" y="96"/>
      <point x="576" y="240" type="curve" smooth="yes"/>
      <point x="576" y="446" type="line" smooth="yes"/>
      <point x="576" y="590"/>
      <point x="460" y="696"/>
      <point x="316" y="696" type="curve" smooth="yes"/>
    </contour>
    <contour>
      <point x="345" y="556"/>
      <point x="379" y="522"/>
      <point x="379" y="481" type="curve" smooth="yes"/>
      <point x="379" y="440" type="line" smooth="yes"/>
      <point x="379" y="399"/>
      <point x="345" y="365"/>
      <point x="304" y="365" type="curve" smooth="yes"/>
      <point x="298" y="365" type="line" smooth="yes"/>
      <point x="257" y="365"/>
      <point x="223" y="399"/>
      <point x="223" y="440" type="curve" smooth="yes"/>
      <point x="223" y="481" type="line" smooth="yes"/>
      <point x="223" y="522"/>
      <point x="257" y="556"/>
      <point x="298" y="556" type="curve" smooth="yes"/>
      <point x="304" y="556" type="line" smooth="yes"/>
    </contour>
  </outline>
</glyph>
<glyph name="question" format="1">
  <advance width="581"/>
  <unicode hex="003F"/>
  <outline>
    <contour>
      <point x="275" y="696" type="line" smooth="yes"/>
      <point x="156" y="696"/>
      <point x="24" y="616"/>
      <point x="24" y="485" type="curve" smooth="yes"/>
      <point x="24" y="472"/>
      <point x="26" y="460"/>
      <point x="27" y="447" type="curve"/>
      <point x="211" y="447" type="line"/>
      <point x="210" y="452"/>
      <point x="210" y="456"/>
      <point x="210" y="460" type="curve" smooth="yes"/>
      <point x="210" y="474" type="line" smooth="yes"/>
      <point x="210" y="517"/>
      <point x="221" y="558"/>
      <point x="275" y="558" type="curve" smooth="yes"/>
      <point x="314" y="558"/>
      <point x="341" y="525"/>
      <point x="341" y="488" type="curve" smooth="yes"/>
      <point x="341" y="399"/>
      <point x="211" y="357"/>
      <point x="211" y="277" type="curve" smooth="yes"/>
      <point x="211" y="218" type="line"/>
      <point x="382" y="218" type="line"/>
      <point x="382" y="240" type="line" smooth="yes"/>
      <point x="382" y="259"/>
      <point x="401" y="273"/>
      <point x="426" y="292" type="curve" smooth="yes"/>
      <point x="467" y="322" type="line" smooth="yes"/>
      <point x="511" y="354"/>
      <point x="553" y="401"/>
      <point x="553" y="480" type="curve" smooth="yes"/>
      <point x="553" y="610"/>
      <point x="437" y="696"/>
      <point x="313" y="696" type="curve" smooth="yes"/>
    </contour>
    <contour>
      <point x="206" y="183" type="line"/>
      <point x="206" y="0" type="line"/>
      <point x="397" y="0" type="line"/>
      <point x="397" y="183" type="line"/>
    </contour>
  </outline>
</glyph>
<glyph name="at" format="1">
  <advance width="906"/>
  <unicode hex="0040"/>
  <outline>
    <contour>
      <point x="234" y="697"/>
      <point x="34" y="579"/>
      <point x="34" y="262" type="curve" smooth="yes"/>
      <point x="34" y="-27"/>
      <point x="187" y="-153"/>
      <point x="434" y="-153" type="curve" smooth="yes"/>
      <point x="477" y="-153"/>
      <point x="557" y="-142"/>
      <point x="599" y="-126" type="curve"/>
      <point x="599" y="-60" type="line"/>
      <point x="563" y="-78"/>
      <point x="480" y="-92"/>
      <point x="434" y="-92" type="curve" smooth="yes"/>
      <point x="210" y="-92"/>
      <point x="107" y="25"/>
      <point x="107" y="261" type="curve" smooth="yes"/>
      <point x="107" y="514"/>
      <point x="246" y="636"/>
      <point x="468" y="636" type="curve" smooth="yes"/>
      <point x="667" y="636"/>
      <point x="806" y="544"/>
      <point x="806" y="321" type="curve" smooth="yes"/>
      <point x="806" y="152"/>
      <point x="754" y="136"/>
      <point x="734" y="136" type="curve" smooth="yes"/>
      <point x="721" y="136"/>
      <point x="701" y="147"/>
      <point x="701" y="171" type="curve" smooth="yes"/>
      <point x="701" y="369" type="line" smooth="yes"/>
      <point x="701" y="455"/>
      <point x="628" y="521"/>
      <point x="477" y="521" type="curve" smooth="yes"/>
      <point x="446" y="521" type="line" smooth="yes"/>
      <point x="307" y="521"/>
      <point x="221" y="458"/>
      <point x="221" y="378" type="curve" smooth="yes"/>
      <point x="221" y="372"/>
      <point x="221" y="367"/>
      <point x="222" y="364" type="curve"/>
      <point x="400" y="364" type="line"/>
      <point x="400" y="368" type="line" smooth="yes"/>
      <point x="400" y="395"/>
      <point x="433" y="412"/>
      <point x="460" y="412" type="curve" smooth="yes"/>
      <point x="495" y="412"/>
      <point x="521" y="393"/>
      <point x="521" y="356" type="curve" smooth="yes"/>
      <point x="521" y="329" type="line"/>
      <point x="327" y="329"/>
      <point x="207" y="300"/>
      <point x="207" y="166" type="curve" smooth="yes"/>
      <point x="207" y="39"/>
      <point x="299" y="23"/>
      <point x="376" y="23" type="curve" smooth="yes"/>
      <point x="453" y="23"/>
      <point x="498" y="61"/>
      <point x="531" y="99" type="curve"/>
      <point x="550" y="59"/>
      <point x="581" y="22"/>
      <point x="660" y="22" type="curve" smooth="yes"/>
      <point x="761" y="22"/>
      <point x="879" y="89"/>
      <point x="879" y="320" type="curve" smooth="yes"/>
      <point x="879" y="588"/>
      <point x="704" y="697"/>
      <point x="469" y="697" type="curve" smooth="yes"/>
    </contour>
    <contour>
      <point x="521" y="202" type="line" smooth="yes"/>
      <point x="521" y="163"/>
      <point x="492" y="136"/>
      <point x="457" y="136" type="curve" smooth="yes"/>
      <point x="429" y="136"/>
      <point x="401" y="145"/>
      <point x="401" y="181" type="curve" smooth="yes"/>
      <point x="401" y="217"/>
      <point x="436" y="243"/>
      <point x="521" y="243" type="curve"/>
    </contour>
  </outline>
</glyph>
<glyph name="B" format="1">
  <advance width="656"/>
  <unicode hex="0042"/>
  <outline>
    <contour>
      <point x="57" y="686" type="line"/>
      <point x="57" y="0" type="line"/>
      <point x="439" y="0" type="line" smooth="yes"/>
      <point x="544" y="0"/>
      <point x="629" y="82"/>
      <point x="629" y="183" type="curve" smooth="yes"/>
      <point x="629" y="292"/>
      <point x="569" y="338"/>
      <point x="498" y="354" type="curve"/>
      <point x="498" y="358" type="line"/>
      <point x="559" y="377"/>
      <point x="613" y="417"/>
      <point x="613" y="518" type="curve" smooth="yes"/>
      <point x="613" y="611"/>
      <point x="533" y="686"/>
      <point x="433" y="686" type="curve" smooth="yes"/>
    </contour>
    <contour>
      <point x="365" y="540" type="line" smooth="yes"/>
      <point x="393" y="540"/>
      <point x="415" y="518"/>
      <point x="415" y="490" type="curve" smooth="yes"/>
      <point x="415" y="473" type="line" smooth="yes"/>
      <point x="415" y="445"/>
      <point x="393" y="423"/>
      <point x="365" y="423" type="curve" smooth="yes"/>
      <point x="250" y="423" type="line"/>
      <point x="250" y="540" type="line"/>
    </contour>
    <contour>
      <point x="377" y="277" type="line" smooth="yes"/>
      <point x="405" y="277"/>
      <point x="427" y="255"/>
      <point x="427" y="227" type="curve" smooth="yes"/>
      <point x="427" y="209" type="line" smooth="yes"/>
      <point x="427" y="181"/>
      <point x="405" y="159"/>
      <point x="377" y="159" type="curve" smooth="yes"/>
      <point x="250" y="159" type="line"/>
      <point x="250" y="277" type="line"/>
    </contour>
  </outline>
</glyph>
<glyph name="D" format="1">
  <advance width="696"/>
  <unicode hex="0044"/>
  <outline>
    <contour>
      <point x="57" y="686" type="line"/>
      <point x="57" y="0" type="line"/>
      <point x="366" y="0" type="line" smooth="yes"/>
      <point x="532" y="0"/>
      <point x="666" y="134"/>
      <point x="666" y="300" type="curve" smooth="yes"/>
      <point x="666" y="386" type="line" smooth="yes"/>
      <point x="666" y="552"/>
      <point x="532" y="686"/>
      <point x="366" y="686" type="curve" smooth="yes"/>
    </contour>
    <contour>
      <point x="346" y="530" type="line" smooth="yes"/>
      <point x="402" y="530"/>
      <point x="446" y="486"/>
      <point x="446" y="430" type="curve" smooth="yes"/>
      <point x="446" y="259" type="line" smooth="yes"/>
      <point x="446" y="203"/>
      <point x="402" y="159"/>
      <point x="346" y="159" type="curve" smooth="yes"/>
      <point x="269" y="159" type="line"/>
      <point x="269" y="530" type="line"/>
    </contour>
    <contour>
      <point x="348" y="343" type="move" name="center"/>
    </contour>
    <contour>
      <point x="348" y="686" type="move" name="top"/>
    </contour>
  </outline>
</glyph>
<glyph name="I" format="1">
  <advance width="446"/>
  <unicode hex="0049"/>
  <outline>
    <contour>
      <point x="410" y="686" type="line"/>
      <point x="36" y="686" type="line"/>
      <point x="36" y="539" type="line"/>
      <point x="117" y="539" type="line"/>
      <point x="117" y="148" type="line"/>
      <point x="36" y="148" type="line"/>
      <point x="36" y="0" type="line"/>
      <point x="410" y="0" type="line"/>
      <point x="410" y="148" type="line"/>
      <point x="329" y="148" type="line"/>
      <point x="329" y="539" type="line"/>
      <point x="410" y="539" type="line"/>
    </contour>
    <contour>
      <point x="401" y="10" type="move" name="ogonek"/>
    </contour>
    <contour>
      <point x="223" y="686" type="move" name="top"/>
    </contour>
  </outline>
</glyph>
<glyph name="K" format="1">
  <advance width="685"/>
  <unicode hex="004B"/>
  <outline>
    <contour>
      <point x="689" y="686" type="line"/>
      <point x="457" y="686" type="line"/>
      <point x="261" y="415" type="line"/>
      <point x="261" y="686" type="line"/>
      <point x="57" y="686" type="line"/>
      <point x="57" y="0" type="line"/>
      <point x="261" y="0" type="line"/>
      <point x="261" y="152" type="line"/>
      <point x="341" y="248" type="line"/>
      <point x="460" y="0" type="line"/>
      <point x="695" y="0" type="line"/>
      <point x="480" y="411" type="line"/>
    </contour>
    <contour>
      <point x="343" y="686" type="move" name="top"/>
    </contour>
    <contour>
      <point x="343" y="0" type="move" name="bottom"/>
    </contour>
  </outline>
</glyph>
<glyph name="L" format="1">
  <advance width="544"/>
  <unicode hex="004C"/>
  <outline>
    <contour>
      <point x="269" y="686" type="line"/>
      <point x="57" y="686" type="line"/>
      <point x="57" y="0" type="line"/>
      <point x="538" y="0" type="line"/>
      <point x="518" y="168" type="line"/>
      <point x="269" y="168" type="line"/>
    </contour>
    <contour>
      <point x="272" y="686" type="move" name="top"/>
    </contour>
    <contour>
      <point x="272" y="0" type="move" name="bottom"/>
    </contour>
    <contour>
      <point x="464" y="686" type="move" name="topright"/>
    </contour>
  </outline>
</glyph>
<glyph name="M" format="1">
  <advance width="1004"/>
  <unicode hex="004D"/>
  <outline>
    <contour>
      <point x="947" y="686" type="line"/>
      <point x="601" y="686" type="line"/>
      <point x="504" y="320" type="line"/>
      <point x="500" y="320" type="line"/>
      <point x="401" y="686" type="line"/>
      <point x="57" y="686" type="line"/>
      <point x="57" y="0" type="line"/>
      <point x="248" y="0" type="line"/>
      <point x="248" y="440" type="line"/>
      <point x="253" y="440" type="line"/>
      <point x="372" y="0" type="line"/>
      <point x="613" y="0" type="line"/>
      <point x="733" y="440" type="line"/>
      <point x="737" y="440" type="line"/>
      <point x="737" y="0" type="line"/>
      <point x="947" y="0" type="line"/>
    </contour>
  </outline>
</glyph>
<glyph name="N" format="1">
  <advance width="696"/>
  <unicode hex="004E"/>
  <outline>
    <contour>
      <point x="639" y="686" type="line"/>
      <point x="445" y="686" type="line"/>
      <point x="445" y="375" type="line"/>
      <point x="443" y="382" type="line"/>
      <point x="233" y="686" type="line"/>
      <point x="57" y="686" type="line"/>
      <point x="57" y="0" type="line"/>
      <point x="250" y="0" type="line"/>
      <point x="250" y="304" type="line"/>
      <point x="253" y="297" type="line"/>
      <point x="459" y="0" type="line"/>
      <point x="639" y="0" type="line"/>
    </contour>
    <contour>
      <point x="348" y="686" type="move" name="top"/>
    </contour>
    <contour>
      <point x="348" y="0" type="move" name="bottom"/>
    </contour>
  </outline>
</glyph>
<glyph name="P" format="1">
  <advance width="645"/>
  <unicode hex="0050"/>
  <outline>
    <contour>
      <point x="57" y="686" type="line"/>
      <point x="57" y="0" type="line"/>
      <point x="267" y="0" type="line"/>
      <point x="267" y="244" type="line"/>
      <point x="422" y="244" type="line" smooth="yes"/>
      <point x="538" y="244"/>
      <point x="632" y="338"/>
      <point x="632" y="454" type="curve" smooth="yes"/>
      <point x="632" y="476" type="line" smooth="yes"/>
      <point x="632" y="592"/>
      <point x="538" y="686"/>
      <point x="422" y="686" type="curve" smooth="yes"/>
    </contour>
    <contour>
      <point x="359" y="529" type="line" smooth="yes"/>
      <point x="400" y="529"/>
      <point x="419" y="497"/>
      <point x="419" y="469" type="curve" smooth="yes"/>
      <point x="419" y="457" type="line" smooth="yes"/>
      <point x="419" y="429"/>
      <point x="399" y="397"/>
      <point x="359" y="397" type="curve" smooth="yes"/>
      <point x="267" y="397" type="line"/>
      <point x="267" y="529" type="line"/>
    </contour>
  </outline>
</glyph>
<glyph name="V" format="1">
  <advance width="656"/>
  <unicode hex="0056"/>
  <outline>
    <contour>
      <point x="660" y="686" type="line"/>
      <point x="458" y="686" type="line"/>
      <point x="339" y="260" type="line"/>
      <point x="335" y="260" type="line"/>
      <point x="215" y="686" type="line"/>
      <point x="-3" y="686" type="line"/>
      <point x="202" y="0" type="line"/>
      <point x="452" y="0" type="line"/>
    </contour>
  </outline>
</glyph>
<glyph name="W" format="1">
  <advance width="1021"/>
  <unicode hex="0057"/>
  <outline>
    <contour>
      <point x="1023" y="686" type="line"/>
      <point x="826" y="686" type="line"/>
      <point x="729" y="305" type="line"/>
      <point x="725" y="305" type="line"/>
      <point x="629" y="686" type="line"/>
      <point x="414" y="686" type="line"/>
      <point x="316" y="305" type="line"/>
      <point x="312" y="305" type="line"/>
      <point x="215" y="686" type="line"/>
      <point x="-2" y="686" type="line"/>
      <point x="185" y="0" type="line"/>
      <point x="427" y="0" type="line"/>
      <point x="510" y="329" type="line"/>
      <point x="516" y="329" type="line"/>
      <point x="599" y="0" type="line"/>
      <point x="837" y="0" type="line"/>
    </contour>
    <contour>
      <point x="511" y="686" type="move" name="top"/>
    </contour>
  </outline>
</glyph>
<glyph name="Y" format="1">
  <advance width="646"/>
  <unicode hex="0059"/>
  <outline>
    <contour>
      <point x="655" y="686" type="line"/>
      <point x="440" y="686" type="line"/>
      <point x="335" y="461" type="line"/>
      <point x="330" y="461" type="line"/>
      <point x="227" y="686" type="line"/>
      <point x="-9" y="686" type="line"/>
      <point x="219" y="262" type="line"/>
      <point x="219" y="0" type="line"/>
      <point x="428" y="0" type="line"/>
      <point x="428" y="262" type="line"/>
    </contour>
    <contour>
      <point x="323" y="686" type="move" name="top"/>
    </contour>
  </outline>
</glyph>
<glyph name="Z" format="1">
  <advance width="608"/>
  <unicode hex="005A"/>
  <outline>
    <contour>
      <point x="577" y="686" type="line"/>
      <point x="38" y="686" type="line"/>
      <point x="38" y="526" type="line"/>
      <point x="282" y="526" type="line"/>
      <point x="14" y="61" type="line"/>
      <point x="14" y="0" type="line"/>
      <point x="585" y="0" type="line"/>
      <point x="585" y="161" type="line"/>
      <point x="314" y="161" type="line"/>
      <point x="577" y="625" type="line"/>
    </contour>
    <contour>
      <point x="304" y="686" type="move" name="top"/>
    </contour>
  </outline>
</glyph>
<glyph name="bracketleft" format="1">
  <advance width="318"/>
  <unicode hex="005B"/>
  <outline>
    <contour>
      <point x="57" y="686" type="line"/>
      <point x="57" y="-161" type="line"/>
      <point x="294" y="-161" type="line"/>
      <point x="294" y="-78" type="line"/>
      <point x="206" y="-78" type="line"/>
      <point x="206" y="603" type="line"/>
      <point x="294" y="603" type="line"/>
      <point x="294" y="686" type="line"/>
    </contour>
  </outline>
</glyph>
<glyph name="underscore" format="1">
  <advance width="668"/>
  <unicode hex="005F"/>
  <outline>
    <contour>
      <point x="84" y="-65" type="line"/>
      <point x="84" y="-127" type="line"/>
      <point x="584" y="-127" type="line"/>
      <point x="584" y="-65" type="line"/>
    </contour>
  </outline>
</glyph>
<glyph name="b" format="1">
  <advance width="601"/>
  <unicode hex="0062"/>
  <outline>
    <contour>
      <point x="248" y="720" type="line"/>
      <point x="50" y="720" type="line"/>
      <point x="50" y="0" type="line"/>
      <point x="120" y="0" type="line"/>
      <point x="188" y="75" type="line"/>
      <point x="227" y="20"/>
      <point x="284" y="-10"/>
      <point x="356" y="-10" type="curve" smooth="yes"/>
      <point x="476" y="-10"/>
      <point x="573" y="75"/>
      <point x="573" y="250" type="curve" smooth="yes"/>
      <point x="573" y="261" type="line" smooth="yes"/>
      <point x="573" y="436"/>
      <point x="487" y="521"/>
      <point x="380" y="521" type="curve" smooth="yes"/>
      <point x="312" y="521"/>
      <point x="267" y="482"/>
      <point x="248" y="458" type="curve"/>
    </contour>
    <contour>
      <point x="345" y="396"/>
      <point x="372" y="365"/>
      <point x="372" y="326" type="curve" smooth="yes"/>
      <point x="372" y="181" type="line" smooth="yes"/>
      <point x="372" y="142"/>
      <point x="345" y="111"/>
      <point x="310" y="111" type="curve" smooth="yes"/>
      <point x="275" y="111"/>
      <point x="248" y="142"/>
      <point x="248" y="181" type="curve" smooth="yes"/>
      <point x="248" y="326" type="line" smooth="yes"/>
      <point x="248" y="365"/>
      <point x="275" y="396"/>
      <point x="310" y="396" type="curve" smooth="yes"/>
    </contour>
  </outline>
</glyph>
<glyph name="c" format="1">
  <advance width="569"/>
  <unicode hex="0063"/>
  <outline>
    <contour>
      <point x="276" y="521" type="line" smooth="yes"/>
      <point x="141" y="521"/>
      <point x="26" y="411"/>
      <point x="26" y="276" type="curve" smooth="yes"/>
      <point x="26" y="235" type="line" smooth="yes"/>
      <point x="26" y="100"/>
      <point x="143" y="-10"/>
      <point x="278" y="-10" type="curve" smooth="yes"/>
      <point x="307" y="-10" type="line" smooth="yes"/>
      <point x="451" y="-10"/>
      <point x="545" y="68"/>
      <point x="545" y="207" type="curve"/>
      <point x="387" y="207" type="line"/>
      <point x="387" y="181" type="line" smooth="yes"/>
      <point x="387" y="142"/>
      <point x="359" y="111"/>
      <point x="320" y="111" type="curve" smooth="yes"/>
      <point x="308" y="111" type="line" smooth="yes"/>
      <point x="269" y="111"/>
      <point x="238" y="142"/>
      <point x="238" y="181" type="curve" smooth="yes"/>
      <point x="238" y="330" type="line" smooth="yes"/>
      <point x="238" y="369"/>
      <point x="268" y="400"/>
      <point x="307" y="400" type="curve" smooth="yes"/>
      <point x="346" y="400"/>
      <point x="376" y="369"/>
      <point x="376" y="330" type="curve" smooth="yes"/>
      <point x="376" y="304" type="line"/>
      <point x="545" y="304" type="line"/>
      <point x="545" y="428"/>
      <point x="458" y="521"/>
      <point x="306" y="521" type="curve" smooth="yes"/>
    </contour>
    <contour>
      <point x="285" y="511" type="move" name="top"/>
    </contour>
    <contour>
      <point x="285" y="0" type="move" name="bottom"/>
    </contour>
  </outline>
</glyph>
<glyph name="d" format="1">
  <advance width="601"/>
  <unicode hex="0064"/>
  <outline>
    <contour>
      <point x="551" y="720" type="line"/>
      <point x="353" y="720" type="line"/>
      <point x="353" y="458" type="line"/>
      <point x="332" y="493"/>
      <point x="292" y="521"/>
      <point x="221" y="521" type="curve" smooth="yes"/>
      <point x="114" y="521"/>
      <point x="28" y="436"/>
      <point x="28" y="261" type="curve" smooth="yes"/>
      <point x="28" y="250" type="line" smooth="yes"/>
      <point x="28" y="75"/>
      <point x="125" y="-10"/>
      <point x="246" y="-10" type="curve" smooth="yes"/>
      <point x="307" y="-10"/>
      <point x="347" y="24"/>
      <point x="375" y="59" type="curve"/>
      <point x="393" y="0" type="line"/>
      <point x="551" y="0" type="line"/>
    </contour>
    <contour>
      <point x="326" y="396"/>
      <point x="353" y="365"/>
      <point x="353" y="326" type="curve" smooth="yes"/>
      <point x="353" y="181" type="line" smooth="yes"/>
      <point x="353" y="142"/>
      <point x="326" y="111"/>
      <point x="291" y="111" type="curve" smooth="yes"/>
      <point x="256" y="111"/>
      <point x="229" y="142"/>
      <point x="229" y="181" type="curve" smooth="yes"/>
      <point x="229" y="326" type="line" smooth="yes"/>
      <point x="229" y="365"/>
      <point x="256" y="396"/>
      <point x="291" y="396" type="curve" smooth="yes"/>
    </contour>
    <contour>
      <point x="301" y="256" type="move" name="center"/>
    </contour>
    <contour>
      <point x="723" y="686" type="move" name="topright"/>
    </contour>
  </outline>
</glyph>
<glyph name="i" format="1">
  <advance width="297"/>
  <unicode hex="0069"/>
  <outline>
    <contour>
      <point x="247" y="720" type="line"/>
      <point x="50" y="720" type="line"/>
      <point x="50" y="577" type="line"/>
      <point x="247" y="577" type="line"/>
    </contour>
    <contour>
      <point x="247" y="510" type="line"/>
      <point x="50" y="510" type="line"/>
      <point x="50" y="0" type="line"/>
      <point x="247" y="0" type="line"/>
    </contour>
  </outline>
</glyph>
<glyph name="l" format="1">
  <advance width="298"/>
  <unicode hex="006C"/>
  <outline>
    <contour>
      <point x="50" y="720" type="line"/>
      <point x="50" y="0" type="line"/>
      <point x="248" y="0" type="line"/>
      <point x="248" y="720" type="line"/>
    </contour>
    <contour>
      <point x="149" y="686" type="move" name="top"/>
    </contour>
    <contour>
      <point x="149" y="0" type="move" name="bottom"/>
    </contour>
    <contour>
      <point x="398" y="686" type="move" name="topright"/>
    </contour>
  </outline>
</glyph>
<glyph name="m" format="1">
  <advance width="871"/>
  <unicode hex="006D"/>
  <outline>
    <contour>
      <point x="647" y="521" type="line" smooth="yes"/>
      <point x="590" y="521"/>
      <point x="542" y="490"/>
      <point x="515" y="443" type="curve"/>
      <point x="490" y="490"/>
      <point x="441" y="521"/>
      <point x="384" y="521" type="curve" smooth="yes"/>
      <point x="357" y="521" type="line" smooth="yes"/>
      <point x="284" y="521"/>
      <point x="236" y="459"/>
      <point x="219" y="437" type="curve"/>
      <point x="198" y="511" type="line"/>
      <point x="50" y="511" type="line"/>
      <point x="50" y="0" type="line"/>
      <point x="244" y="0" type="line"/>
      <point x="244" y="324" type="line" smooth="yes"/>
      <point x="244" y="357"/>
      <point x="265" y="379"/>
      <point x="292" y="379" type="curve" smooth="yes"/>
      <point x="319" y="379"/>
      <point x="340" y="357"/>
      <point x="340" y="324" type="curve" smooth="yes"/>
      <point x="340" y="0" type="line"/>
      <point x="534" y="0" type="line"/>
      <point x="534" y="324" type="line" smooth="yes"/>
      <point x="534" y="357"/>
      <point x="555" y="379"/>
      <point x="582" y="379" type="curve" smooth="yes"/>
      <point x="609" y="379"/>
      <point x="630" y="357"/>
      <point x="630" y="324" type="curve" smooth="yes"/>
      <point x="630" y="0" type="line"/>
      <point x="824" y="0" type="line"/>
      <point x="824" y="371" type="line" smooth="yes"/>
      <point x="824" y="454"/>
      <point x="757" y="521"/>
      <point x="674" y="521" type="curve" smooth="yes"/>
    </contour>
  </outline>
</glyph>
<glyph name="q" format="1">
  <advance width="600"/>
  <unicode hex="0071"/>
  <outline>
    <contour>
      <point x="123" y="520"/>
      <point x="27" y="435"/>
      <point x="27" y="260" type="curve" smooth="yes"/>
      <point x="27" y="249" type="line" smooth="yes"/>
      <point x="27" y="74"/>
      <point x="113" y="-11"/>
      <point x="220" y="-11" type="curve" smooth="yes"/>
      <point x="290" y="-11"/>
      <point x="331" y="28"/>
      <point x="352" y="52" type="curve"/>
      <point x="352" y="-180" type="line"/>
      <point x="550" y="-180" type="line"/>
      <point x="550" y="511" type="line"/>
      <point x="480" y="511" type="line"/>
      <point x="404" y="443" type="line"/>
      <point x="365" y="498"/>
      <point x="316" y="520"/>
      <point x="244" y="520" type="curve" smooth="yes"/>
    </contour>
    <contour>
      <point x="325" y="399"/>
      <point x="352" y="368"/>
      <point x="352" y="329" type="curve" smooth="yes"/>
      <point x="352" y="184" type="line" smooth="yes"/>
      <point x="352" y="145"/>
      <point x="325" y="114"/>
      <point x="290" y="114" type="curve" smooth="yes"/>
      <point x="255" y="114"/>
      <point x="228" y="145"/>
      <point x="228" y="184" type="curve" smooth="yes"/>
      <point x="228" y="329" type="line" smooth="yes"/>
      <point x="228" y="368"/>
      <point x="255" y="399"/>
      <point x="290" y="399" type="curve" smooth="yes"/>
    </contour>
  </outline>
</glyph>
<glyph name="w" format="1">
  <advance width="855"/>
  <unicode hex="0077"/>
  <outline>
    <contour>
      <point x="660" y="511" type="line"/>
      <point x="603" y="253" type="line"/>
      <point x="595" y="253" type="line"/>
      <point x="535" y="511" type="line"/>
      <point x="335" y="511" type="line"/>
      <point x="274" y="253" type="line"/>
      <point x="267" y="253" type="line"/>
      <point x="210" y="511" type="line"/>
      <point x="4" y="511" type="line"/>
      <point x="149" y="0" type="line"/>
      <point x="377" y="0" type="line"/>
      <point x="425" y="213" type="line"/>
      <point x="433" y="213" type="line"/>
      <point x="482" y="0" type="line"/>
      <point x="706" y="0" type="line"/>
      <point x="852" y="511" type="line"/>
    </contour>
    <contour>
      <point x="428" y="511" type="move" name="top"/>
    </contour>
  </outline>
</glyph>
<glyph name="z" format="1">
  <advance width="498"/>
  <unicode hex="007A"/>
  <outline>
    <contour>
      <point x="33" y="511" type="line"/>
      <point x="33" y="387" type="line"/>
      <point x="210" y="387" type="line"/>
      <point x="22" y="63" type="line"/>
      <point x="22" y="0" type="line"/>
      <point x="474" y="0" type="line"/>
      <point x="474" y="124" type="line"/>
      <point x="277" y="124" type="line"/>
      <point x="466" y="451" type="line"/>
      <point x="466" y="511" type="line"/>
    </contour>
    <contour>
      <point x="249" y="511" type="move" name="top"/>
    </contour>
  </outline>
</glyph>
<glyph name="asciitilde" format="1">
  <advance width="648"/>
  <unicode hex="007E"/>
  <outline>
    <contour>
      <point x="578" y="372"/>
      <point x="519" y="328"/>
      <point x="444" y="328" type="curve" smooth="yes"/>
      <point x="356" y="328"/>
      <point x="291" y="394"/>
      <point x="206" y="394" type="curve" smooth="yes"/>
      <point x="129" y="394"/>
      <point x="72" y="347"/>
      <point x="43" y="316" type="curve"/>
      <point x="43" y="190" type="line"/>
      <point x="72" y="221"/>
      <point x="129" y="268"/>
      <point x="206" y="268" type="curve" smooth="yes"/>
      <point x="294" y="268"/>
      <point x="359" y="202"/>
      <point x="444" y="202" type="curve" smooth="yes"/>
      <point x="519" y="202"/>
      <point x="578" y="246"/>
      <point x="607" y="280" type="curve"/>
      <point x="607" y="406" type="line"/>
    </contour>
  </outline>
</glyph>
<glyph name="exclamdown" format="1">
  <advance width="297"/>
  <unicode hex="00A1"/>
  <outline>
    <contour>
      <point x="86" y="278" type="line"/>
      <point x="29" y="-177" type="line"/>
      <point x="267" y="-177" type="line"/>
      <point x="213" y="278" type="line"/>
    </contour>
    <contour>
      <point x="53" y="511" type="line"/>
      <point x="53" y="328" type="line"/>
      <point x="244" y="328" type="line"/>
      <point x="244" y="511" type="line"/>
    </contour>
  </outline>
</glyph>
<glyph name="sterling" format="1">
  <advance width="667"/>
  <unicode hex="00A3"/>
  <outline>
    <contour>
      <point x="242" y="700"/>
      <point x="127" y="609"/>
      <point x="127" y="493" type="curve" smooth="yes"/>
      <point x="127" y="413" type="line"/>
      <point x="33" y="413" type="line"/>
      <point x="33" y="266" type="line"/>
      <point x="127" y="266" type="line"/>
      <point x="127" y="147" type="line"/>
      <point x="63" y="147" type="line"/>
      <point x="63" y="0" type="line"/>
      <point x="586" y="0" type="line"/>
      <point x="586" y="147" type="line"/>
      <point x="304" y="147" type="line"/>
      <point x="324" y="266" type="line"/>
      <point x="421" y="266" type="line"/>
      <point x="421" y="413" type="line"/>
      <point x="325" y="413" type="line"/>
      <point x="325" y="494" type="line" smooth="yes"/>
      <point x="325" y="526"/>
      <point x="351" y="552"/>
      <point x="383" y="552" type="curve" smooth="yes"/>
      <point x="415" y="552"/>
      <point x="441" y="526"/>
      <point x="441" y="494" type="curve" smooth="yes"/>
      <point x="441" y="466" type="line"/>
      <point x="640" y="466" type="line"/>
      <point x="640" y="494" type="line" smooth="yes"/>
      <point x="640" y="609"/>
      <point x="525" y="700"/>
      <point x="383" y="700" type="curve" smooth="yes"/>
    </contour>
  </outline>
</glyph>
<glyph name="copyright" format="1">
  <advance width="770"/>
  <unicode hex="00A9"/>
  <outline>
    <contour>
      <point x="188" y="696"/>
      <point x="31" y="539"/>
      <point x="31" y="344" type="curve" smooth="yes"/>
      <point x="31" y="147"/>
      <point x="188" y="-10"/>
      <point x="385" y="-10" type="curve" smooth="yes"/>
      <point x="580" y="-10"/>
      <point x="739" y="147"/>
      <point x="739" y="344" type="curve" smooth="yes"/>
      <point x="739" y="539"/>
      <point x="580" y="696"/>
      <point x="385" y="696" type="curve" smooth="yes"/>
    </contour>
    <contour>
      <point x="378" y="555" type="line" smooth="yes"/>
      <point x="278" y="555"/>
      <point x="192" y="483"/>
      <point x="192" y="375" type="curve" smooth="yes"/>
      <point x="192" y="311" type="line" smooth="yes"/>
      <point x="192" y="196"/>
      <point x="277" y="131"/>
      <point x="382" y="131" type="curve" smooth="yes"/>
      <point x="399" y="131" type="line" smooth="yes"/>
      <point x="495" y="131"/>
      <point x="568" y="197"/>
      <point x="568" y="305" type="curve"/>
      <point x="456" y="305" type="line"/>
      <point x="456" y="285" type="line" smooth="yes"/>
      <point x="456" y="246"/>
      <point x="429" y="225"/>
      <point x="396" y="225" type="curve" smooth="yes"/>
      <point x="387" y="225" type="line" smooth="yes"/>
      <point x="354" y="225"/>
      <point x="327" y="252"/>
      <point x="327" y="285" type="curve" smooth="yes"/>
      <point x="327" y="401" type="line" smooth="yes"/>
      <point x="327" y="434"/>
      <point x="354" y="461"/>
      <point x="387" y="461" type="curve" smooth="yes"/>
      <point x="423" y="461"/>
      <point x="450" y="438"/>
      <point x="450" y="401" type="curve" smooth="yes"/>
      <point x="450" y="380" type="line"/>
      <point x="568" y="380" type="line"/>
      <point x="568" y="497"/>
      <point x="492" y="555"/>
      <point x="394" y="555" type="curve" smooth="yes"/>
    </contour>
    <contour>
      <point x="553" y="632"/>
      <point x="663" y="518"/>
      <point x="663" y="344" type="curve" smooth="yes"/>
      <point x="663" y="168"/>
      <point x="553" y="55"/>
      <point x="385" y="55" type="curve" smooth="yes"/>
      <point x="214" y="55"/>
      <point x="107" y="168"/>
      <point x="107" y="344" type="curve" smooth="yes"/>
      <point x="107" y="518"/>
      <point x="214" y="632"/>
      <point x="385" y="632" type="curve" smooth="yes"/>
    </contour>
  </outline>
</glyph>
<glyph name="logicalnot" format="1">
  <advance width="623"/>
  <unicode hex="00AC"/>
  <outline>
    <contour>
      <point x="33" y="484" type="line"/>
      <point x="33" y="334" type="line"/>
      <point x="421" y="334" type="line"/>
      <point x="421" y="158" type="line"/>
      <point x="571" y="158" type="line"/>
      <point x="571" y="484" type="line"/>
    </contour>
  </outline>
</glyph>
<glyph name="uni00AD" format="1">
  <advance width="352"/>
  <unicode hex="00AD"/>
  <outline>
    <contour>
      <point x="49" y="354" type="line"/>
      <point x="49" y="196" type="line"/>
      <point x="303" y="196" type="line"/>
      <point x="303" y="354" type="line"/>
    </contour>
  </outline>
</glyph>
<glyph name="registered" format="1">
  <advance width="770"/>
  <unicode hex="00AE"/>
  <outline>
    <contour>
      <point x="188" y="696"/>
      <point x="31" y="539"/>
      <point x="31" y="344" type="curve" smooth="yes"/>
      <point x="31" y="147"/>
      <point x="188" y="-10"/>
      <point x="385" y="-10" type="curve" smooth="yes"/>
      <point x="580" y="-10"/>
      <point x="739" y="147"/>
      <point x="739" y="344" type="curve" smooth="yes"/>
      <point x="739" y="539"/>
      <point x="580" y="696"/>
      <point x="385" y="696" type="curve" smooth="yes"/>
    </contour>
    <contour>
      <point x="553" y="632"/>
      <point x="663" y="518"/>
      <point x="663" y="344" type="curve" smooth="yes"/>
      <point x="663" y="168"/>
      <point x="553" y="55"/>
      <point x="385" y="55" type="curve" smooth="yes"/>
      <point x="214" y="55"/>
      <point x="107" y="168"/>
      <point x="107" y="344" type="curve" smooth="yes"/>
      <point x="107" y="518"/>
      <point x="214" y="632"/>
      <point x="385" y="632" type="curve" smooth="yes"/>
    </contour>
    <contour>
      <point x="220" y="547" type="line"/>
      <point x="220" y="135" type="line"/>
      <point x="343" y="135" type="line"/>
      <point x="343" y="303" type="line"/>
      <point x="377" y="303" type="line" smooth="yes"/>
      <point x="429" y="303"/>
      <point x="431" y="245"/>
      <point x="431" y="207" type="curve" smooth="yes"/>
      <point x="431" y="148"/>
      <point x="462" y="129"/>
      <point x="515" y="129" type="curve" smooth="yes"/>
      <point x="538" y="129"/>
      <point x="566" y="132"/>
      <point x="587" y="141" type="curve"/>
      <point x="587" y="165" type="line"/>
      <point x="558" y="173"/>
      <point x="557" y="214"/>
      <point x="557" y="239" type="curve" smooth="yes"/>
      <point x="557" y="290"/>
      <point x="537" y="336"/>
      <point x="490" y="351" type="curve"/>
      <point x="491" y="354" type="line"/>
      <point x="534" y="362"/>
      <point x="565" y="401"/>
      <point x="565" y="445" type="curve" smooth="yes"/>
      <point x="565" y="507"/>
      <point x="510" y="547"/>
      <point x="451" y="547" type="curve" smooth="yes"/>
    </contour>
    <contour>
      <point x="423" y="459"/>
      <point x="436" y="446"/>
      <point x="436" y="429" type="curve" smooth="yes"/>
      <point x="436" y="419" type="line" smooth="yes"/>
      <point x="436" y="402"/>
      <point x="423" y="389"/>
      <point x="406" y="389" type="curve" smooth="yes"/>
      <point x="343" y="389" type="line"/>
      <point x="343" y="459" type="line"/>
      <point x="406" y="459" type="line" smooth="yes"/>
    </contour>
  </outline>
</glyph>
<glyph name="plusminus" format="1">
  <advance width="615"/>
  <unicode hex="00B1"/>
  <outline>
    <contour>
      <point x="243" y="512" type="line"/>
      <point x="243" y="400" type="line"/>
      <point x="51" y="400" type="line"/>
      <point x="51" y="272" type="line"/>
      <point x="243" y="272" type="line"/>
      <point x="243" y="160" type="line"/>
      <point x="371" y="160" type="line"/>
      <point x="371" y="272" type="line"/>
      <point x="563" y="272" type="line"/>
      <point x="563" y="400" type="line"/>
      <point x="371" y="400" type="line"/>
      <point x="371" y="512" type="line"/>
    </contour>
    <contour>
      <point x="51" y="128" type="line"/>
      <point x="51" y="0" type="line"/>
      <point x="563" y="0" type="line"/>
      <point x="563" y="128" type="line"/>
    </contour>
  </outline>
</glyph>
<glyph name="acute" format="1">
  <advance width="333"/>
  <unicode hex="00B4"/>
  <outline>
    <contour>
      <point x="133" y="720" type="line"/>
      <point x="42" y="575" type="line"/>
      <point x="160" y="575" type="line"/>
      <point x="286" y="717" type="line"/>
      <point x="284" y="720" type="line"/>
    </contour>
    <contour>
      <point x="114" y="511" type="move" name="_top"/>
    </contour>
  </outline>
</glyph>
<glyph name="periodcentered" format="1">
  <advance width="289"/>
  <unicode hex="00B7"/>
  <outline>
    <contour>
      <point x="49" y="380" type="line"/>
      <point x="49" y="197" type="line"/>
      <point x="240" y="197" type="line"/>
      <point x="240" y="380" type="line"/>
    </contour>
  </outline>
</glyph>
<glyph name="uni00B9" format="1">
  <advance width="339"/>
  <unicode hex="00B9"/>
  <outline>
    <contour>
      <point x="192" y="796" type="line"/>
      <point x="152" y="770"/>
      <point x="89" y="741"/>
      <point x="41" y="738" type="curve"/>
      <point x="41" y="676" type="line"/>
      <point x="123" y="676" type="line"/>
      <point x="123" y="504" type="line"/>
      <point x="41" y="504" type="line"/>
      <point x="41" y="422" type="line"/>
      <point x="306" y="422" type="line"/>
      <point x="306" y="504" type="line"/>
      <point x="228" y="504" type="line"/>
      <point x="228" y="796" type="line"/>
    </contour>
  </outline>
</glyph>
<glyph name="ordmasculine" format="1">
  <advance width="397"/>
  <unicode hex="00BA"/>
  <outline>
    <contour>
      <point x="189" y="697" type="line" smooth="yes"/>
      <point x="98" y="697"/>
      <point x="30" y="634"/>
      <point x="30" y="544" type="curve" smooth="yes"/>
      <point x="30" y="531" type="line" smooth="yes"/>
      <point x="30" y="440"/>
      <point x="98" y="378"/>
      <point x="189" y="378" type="curve" smooth="yes"/>
      <point x="208" y="378" type="line" smooth="yes"/>
      <point x="299" y="378"/>
      <point x="367" y="440"/>
      <point x="367" y="531" type="curve" smooth="yes"/>
      <point x="367" y="544" type="line" smooth="yes"/>
      <point x="367" y="634"/>
      <point x="299" y="697"/>
      <point x="208" y="697" type="curve" smooth="yes"/>
    </contour>
    <contour>
      <point x="222" y="624"/>
      <point x="240" y="605"/>
      <point x="240" y="582" type="curve" smooth="yes"/>
      <point x="240" y="493" type="line" smooth="yes"/>
      <point x="240" y="469"/>
      <point x="222" y="451"/>
      <point x="199" y="451" type="curve" smooth="yes"/>
      <point x="176" y="451"/>
      <point x="157" y="469"/>
      <point x="157" y="493" type="curve" smooth="yes"/>
      <point x="157" y="582" type="line" smooth="yes"/>
      <point x="157" y="605"/>
      <point x="176" y="624"/>
      <point x="199" y="624" type="curve" smooth="yes"/>
    </contour>
  </outline>
</glyph>
<glyph name="onequarter" format="1">
  <advance width="766"/>
  <unicode hex="00BC"/>
  <outline>
    <contour>
      <point x="565" y="686" type="line"/>
      <point x="145" y="0" type="line"/>
      <point x="234" y="0" type="line"/>
      <point x="651" y="686" type="line"/>
    </contour>
    <contour>
      <point x="188" y="685" type="line"/>
      <point x="148" y="659"/>
      <point x="85" y="630"/>
      <point x="37" y="627" type="curve"/>
      <point x="37" y="565" type="line"/>
      <point x="119" y="565" type="line"/>
      <point x="119" y="393" type="line"/>
      <point x="37" y="393" type="line"/>
      <point x="37" y="311" type="line"/>
      <point x="302" y="311" type="line"/>
      <point x="302" y="393" type="line"/>
      <point x="224" y="393" type="line"/>
      <point x="224" y="685" type="line"/>
    </contour>
    <contour>
      <point x="518" y="375" type="line"/>
      <point x="507" y="322"/>
      <point x="461" y="210"/>
      <point x="434" y="162" type="curve"/>
      <point x="434" y="81" type="line"/>
      <point x="585" y="81" type="line"/>
      <point x="585" y="0" type="line"/>
      <point x="686" y="0" type="line"/>
      <point x="686" y="81" type="line"/>
      <point x="739" y="81" type="line"/>
      <point x="739" y="161" type="line"/>
      <point x="686" y="161" type="line"/>
      <point x="686" y="339" type="line"/>
      <point x="641" y="339" type="line"/>
      <point x="633" y="309"/>
      <point x="603" y="242"/>
      <point x="585" y="216" type="curve"/>
      <point x="585" y="161" type="line"/>
      <point x="504" y="161" type="line"/>
      <point x="542" y="207"/>
      <point x="605" y="318"/>
      <point x="613" y="375" type="curve"/>
    </contour>
  </outline>
</glyph>
<glyph name="Acircumflex" format="1">
  <advance width="709"/>
  <unicode hex="00C2"/>
  <outline>
    <contour>
      <point x="413" y="896" type="line"/>
      <point x="285" y="896" type="line"/>
      <point x="146" y="751" type="line"/>
      <point x="274" y="751" type="line"/>
      <point x="348" y="828" type="line"/>
      <point x="422" y="751" type="line"/>
      <point x="552" y="751" type="line"/>
    </contour>
    <contour>
      <point x="485" y="686" type="line"/>
      <point x="224" y="686" type="line"/>
      <point x="-5" y="0" type="line"/>
      <point x="197" y="0" type="line"/>
      <point x="237" y="122" type="line"/>
      <point x="455" y="122" type="line"/>
      <point x="496" y="0" type="line"/>
      <point x="714" y="0" type="line"/>
    </contour>
    <contour>
      <point x="349" y="475" type="line"/>
      <point x="407" y="267" type="line"/>
      <point x="285" y="267" type="line"/>
      <point x="344" y="475" type="line"/>
    </contour>
  </outline>
</glyph>
<glyph name="Atilde" format="1">
  <advance width="709"/>
  <unicode hex="00C3"/>
  <outline>
    <contour>
      <point x="489" y="893" type="line"/>
      <point x="482" y="870"/>
      <point x="464" y="853"/>
      <point x="439" y="853" type="curve" smooth="yes"/>
      <point x="386" y="853"/>
      <point x="330" y="893"/>
      <point x="266" y="893" type="curve" smooth="yes"/>
      <point x="189" y="893"/>
      <point x="126" y="822"/>
      <point x="126" y="750" type="curve"/>
      <point x="207" y="750" type="line"/>
      <point x="214" y="773"/>
      <point x="232" y="790"/>
      <point x="257" y="790" type="curve" smooth="yes"/>
      <point x="270" y="790"/>
      <point x="284" y="788"/>
      <point x="297" y="784" type="curve" smooth="yes"/>
      <point x="339" y="770" type="line" smooth="yes"/>
      <point x="369" y="760"/>
      <point x="397" y="750"/>
      <point x="430" y="750" type="curve" smooth="yes"/>
      <point x="507" y="750"/>
      <point x="570" y="821"/>
      <point x="570" y="893" type="curve"/>
    </contour>
    <contour>
      <point x="485" y="686" type="line"/>
      <point x="224" y="686" type="line"/>
      <point x="-5" y="0" type="line"/>
      <point x="197" y="0" type="line"/>
      <point x="237" y="122" type="line"/>
      <point x="455" y="122" type="line"/>
      <point x="496" y="0" type="line"/>
      <point x="714" y="0" type="line"/>
    </contour>
    <contour>
      <point x="349" y="475" type="line"/>
      <point x="407" y="267" type="line"/>
      <point x="285" y="267" type="line"/>
      <point x="344" y="475" type="line"/>
    </contour>
  </outline>
</glyph>
<glyph name="AE" format="1">
  <advance width="1011"/>
  <unicode hex="00C6"/>
  <outline>
    <contour>
      <point x="983" y="686" type="line"/>
      <point x="312" y="686" type="line"/>
      <point x="-13" y="0" type="line"/>
      <point x="187" y="0" type="line"/>
      <point x="245" y="122" type="line"/>
      <point x="463" y="122" type="line"/>
      <point x="487" y="0" type="line"/>
      <point x="983" y="0" type="line"/>
      <point x="963" y="164" type="line"/>
      <point x="674" y="164" type="line"/>
      <point x="652" y="275" type="line"/>
      <point x="952" y="275" type="line"/>
      <point x="952" y="428" type="line"/>
      <point x="622" y="428" type="line"/>
      <point x="603" y="528" type="line"/>
      <point x="963" y="528" type="line"/>
    </contour>
    <contour>
      <point x="407" y="475" type="line"/>
      <point x="436" y="267" type="line"/>
      <point x="314" y="267" type="line"/>
      <point x="402" y="475" type="line"/>
    </contour>
    <contour>
      <point x="506" y="686" type="move" name="top"/>
    </contour>
  </outline>
</glyph>
<glyph name="Iacute" format="1">
  <advance width="446"/>
  <unicode hex="00CD"/>
  <outline>
    <contour>
      <point x="404" y="895" type="line"/>
      <point x="253" y="895" type="line"/>
      <point x="162" y="750" type="line"/>
      <point x="280" y="750" type="line"/>
      <point x="406" y="892" type="line"/>
    </contour>
    <contour>
      <point x="410" y="686" type="line"/>
      <point x="36" y="686" type="line"/>
      <point x="36" y="539" type="line"/>
      <point x="117" y="539" type="line"/>
      <point x="117" y="148" type="line"/>
      <point x="36" y="148" type="line"/>
      <point x="36" y="0" type="line"/>
      <point x="410" y="0" type="line"/>
      <point x="410" y="148" type="line"/>
      <point x="329" y="148" type="line"/>
      <point x="329" y="539" type="line"/>
      <point x="410" y="539" type="line"/>
    </contour>
  </outline>
</glyph>
<glyph name="Ntilde" format="1">
  <advance width="696"/>
  <unicode hex="00D1"/>
  <outline>
    <contour>
      <point x="493" y="893" type="line"/>
      <point x="486" y="870"/>
      <point x="468" y="853"/>
      <point x="443" y="853" type="curve" smooth="yes"/>
      <point x="390" y="853"/>
      <point x="334" y="893"/>
      <point x="270" y="893" type="curve" smooth="yes"/>
      <point x="193" y="893"/>
      <point x="130" y="822"/>
      <point x="130" y="750" type="curve"/>
      <point x="211" y="750" type="line"/>
      <point x="218" y="773"/>
      <point x="236" y="790"/>
      <point x="261" y="790" type="curve"/>
      <point x="274" y="789"/>
      <point x="288" y="788"/>
      <point x="302" y="784" type="curve"/>
      <point x="344" y="770" type="line" smooth="yes"/>
      <point x="373" y="760"/>
      <point x="401" y="750"/>
      <point x="434" y="750" type="curve" smooth="yes"/>
      <point x="511" y="750"/>
      <point x="574" y="821"/>
      <point x="574" y="893" type="curve"/>
    </contour>
    <contour>
      <point x="639" y="686" type="line"/>
      <point x="445" y="686" type="line"/>
      <point x="445" y="375" type="line"/>
      <point x="443" y="382" type="line"/>
      <point x="233" y="686" type="line"/>
      <point x="57" y="686" type="line"/>
      <point x="57" y="0" type="line"/>
      <point x="250" y="0" type="line"/>
      <point x="250" y="304" type="line"/>
      <point x="253" y="297" type="line"/>
      <point x="459" y="0" type="line"/>
      <point x="639" y="0" type="line"/>
    </contour>
  </outline>
</glyph>
<glyph name="Ocircumflex" format="1">
  <advance width="718"/>
  <unicode hex="00D4"/>
  <outline>
    <contour>
      <point x="420" y="895" type="line"/>
      <point x="292" y="895" type="line"/>
      <point x="153" y="750" type="line"/>
      <point x="281" y="750" type="line"/>
      <point x="355" y="827" type="line"/>
      <point x="429" y="750" type="line"/>
      <point x="559" y="750" type="line"/>
    </contour>
    <contour>
      <point x="331" y="694" type="line" smooth="yes"/>
      <point x="165" y="694"/>
      <point x="31" y="560"/>
      <point x="31" y="394" type="curve" smooth="yes"/>
      <point x="31" y="290" type="line" smooth="yes"/>
      <point x="31" y="124"/>
      <point x="165" y="-10"/>
      <point x="331" y="-10" type="curve" smooth="yes"/>
      <point x="387" y="-10" type="line" smooth="yes"/>
      <point x="553" y="-10"/>
      <point x="687" y="124"/>
      <point x="687" y="290" type="curve" smooth="yes"/>
      <point x="687" y="394" type="line" smooth="yes"/>
      <point x="687" y="560"/>
      <point x="553" y="694"/>
      <point x="387" y="694" type="curve" smooth="yes"/>
    </contour>
    <contour>
      <point x="362" y="540" type="line" smooth="yes"/>
      <point x="418" y="540"/>
      <point x="462" y="496"/>
      <point x="462" y="440" type="curve" smooth="yes"/>
      <point x="462" y="247" type="line" smooth="yes"/>
      <point x="462" y="191"/>
      <point x="418" y="147"/>
      <point x="362" y="147" type="curve" smooth="yes"/>
      <point x="357" y="147" type="line" smooth="yes"/>
      <point x="301" y="147"/>
      <point x="257" y="191"/>
      <point x="257" y="247" type="curve" smooth="yes"/>
      <point x="257" y="440" type="line" smooth="yes"/>
      <point x="257" y="496"/>
      <point x="301" y="540"/>
      <point x="357" y="540" type="curve" smooth="yes"/>
    </contour>
  </outline>
</glyph>
<glyph name="Otilde" format="1">
  <advance width="718"/>
  <unicode hex="00D5"/>
  <outline>
    <contour>
      <point x="498" y="893" type="line"/>
      <point x="491" y="870"/>
      <point x="473" y="853"/>
      <point x="448" y="853" type="curve" smooth="yes"/>
      <point x="395" y="853"/>
      <point x="339" y="893"/>
      <point x="275" y="893" type="curve" smooth="yes"/>
      <point x="198" y="893"/>
      <point x="135" y="822"/>
      <point x="135" y="750" type="curve"/>
      <point x="216" y="750" type="line"/>
      <point x="223" y="773"/>
      <point x="241" y="790"/>
      <point x="266" y="790" type="curve" smooth="yes"/>
      <point x="279" y="790"/>
      <point x="293" y="788"/>
      <point x="306" y="784" type="curve" smooth="yes"/>
      <point x="348" y="770" type="line" smooth="yes"/>
      <point x="378" y="760"/>
      <point x="406" y="750"/>
      <point x="439" y="750" type="curve" smooth="yes"/>
      <point x="516" y="750"/>
      <point x="579" y="821"/>
      <point x="579" y="893" type="curve"/>
    </contour>
    <contour>
      <point x="331" y="694" type="line" smooth="yes"/>
      <point x="165" y="694"/>
      <point x="31" y="560"/>
      <point x="31" y="394" type="curve" smooth="yes"/>
      <point x="31" y="290" type="line" smooth="yes"/>
      <point x="31" y="124"/>
      <point x="165" y="-10"/>
      <point x="331" y="-10" type="curve" smooth="yes"/>
      <point x="387" y="-10" type="line" smooth="yes"/>
      <point x="553" y="-10"/>
      <point x="687" y="124"/>
      <point x="687" y="290" type="curve" smooth="yes"/>
      <point x="687" y="394" type="line" smooth="yes"/>
      <point x="687" y="560"/>
      <point x="553" y="694"/>
      <point x="387" y="694" type="curve" smooth="yes"/>
    </contour>
    <contour>
      <point x="362" y="540" type="line" smooth="yes"/>
      <point x="418" y="540"/>
      <point x="462" y="496"/>
      <point x="462" y="440" type="curve" smooth="yes"/>
      <point x="462" y="247" type="line" smooth="yes"/>
      <point x="462" y="191"/>
      <point x="418" y="147"/>
      <point x="362" y="147" type="curve" smooth="yes"/>
      <point x="357" y="147" type="line" smooth="yes"/>
      <point x="301" y="147"/>
      <point x="257" y="191"/>
      <point x="257" y="247" type="curve" smooth="yes"/>
      <point x="257" y="440" type="line" smooth="yes"/>
      <point x="257" y="496"/>
      <point x="301" y="540"/>
      <point x="357" y="540" type="curve" smooth="yes"/>
    </contour>
  </outline>
</glyph>
<glyph name="multiply" format="1">
  <advance width="615"/>
  <unicode hex="00D7"/>
  <outline>
    <contour>
      <point x="307" y="347" type="line"/>
      <point x="171" y="482" type="line"/>
      <point x="81" y="392" type="line"/>
      <point x="216" y="256" type="line"/>
      <point x="81" y="120" type="line"/>
      <point x="171" y="30" type="line"/>
      <point x="307" y="165" type="line"/>
      <point x="443" y="30" type="line"/>
      <point x="533" y="120" type="line"/>
      <point x="398" y="256" type="line"/>
      <point x="533" y="392" type="line"/>
      <point x="443" y="482" type="line"/>
    </contour>
  </outline>
</glyph>
<glyph name="Oslash" format="1">
  <advance width="718"/>
  <unicode hex="00D8"/>
  <outline>
    <contour>
      <point x="661" y="754" type="line"/>
      <point x="553" y="754" type="line"/>
      <point x="502" y="671" type="line"/>
      <point x="466" y="686"/>
      <point x="428" y="694"/>
      <point x="387" y="694" type="curve" smooth="yes"/>
      <point x="331" y="694" type="line" smooth="yes"/>
      <point x="165" y="694"/>
      <point x="31" y="560"/>
      <point x="31" y="394" type="curve" smooth="yes"/>
      <point x="31" y="290" type="line" smooth="yes"/>
      <point x="31" y="199"/>
      <point x="69" y="121"/>
      <point x="132" y="65" type="curve"/>
      <point x="53" y="-65" type="line"/>
      <point x="161" y="-65" type="line"/>
      <point x="210" y="15" type="line"/>
      <point x="249" y="-2"/>
      <point x="289" y="-10"/>
      <point x="331" y="-10" type="curve" smooth="yes"/>
      <point x="387" y="-10" type="line" smooth="yes"/>
      <point x="553" y="-10"/>
      <point x="687" y="124"/>
      <point x="687" y="290" type="curve" smooth="yes"/>
      <point x="687" y="394" type="line" smooth="yes"/>
      <point x="687" y="486"/>
      <point x="646" y="567"/>
      <point x="581" y="623" type="curve"/>
    </contour>
    <contour>
      <point x="362" y="540" type="line" smooth="yes"/>
      <point x="380" y="540"/>
      <point x="397" y="535"/>
      <point x="414" y="526" type="curve"/>
      <point x="257" y="269" type="line"/>
      <point x="257" y="440" type="line" smooth="yes"/>
      <point x="257" y="496"/>
      <point x="301" y="540"/>
      <point x="357" y="540" type="curve" smooth="yes"/>
    </contour>
    <contour>
      <point x="462" y="428" type="line"/>
      <point x="462" y="247" type="line" smooth="yes"/>
      <point x="462" y="191"/>
      <point x="418" y="147"/>
      <point x="362" y="147" type="curve" smooth="yes"/>
      <point x="357" y="147" type="line" smooth="yes"/>
      <point x="336" y="147"/>
      <point x="318" y="153"/>
      <point x="301" y="164" type="curve"/>
    </contour>
    <contour>
      <point x="359" y="686" type="move" name="top"/>
    </contour>
  </outline>
</glyph>
<glyph name="Ugrave" format="1">
  <advance width="687"/>
  <unicode hex="00D9"/>
  <outline>
    <contour>
      <point x="314" y="895" type="line"/>
      <point x="163" y="895" type="line"/>
      <point x="161" y="892" type="line"/>
      <point x="287" y="750" type="line"/>
      <point x="405" y="750" type="line"/>
    </contour>
    <contour>
      <point x="635" y="686" type="line"/>
      <point x="425" y="686" type="line"/>
      <point x="425" y="221" type="line" smooth="yes"/>
      <point x="425" y="177"/>
      <point x="389" y="146"/>
      <point x="344" y="146" type="curve" smooth="yes"/>
      <point x="299" y="146"/>
      <point x="263" y="177"/>
      <point x="263" y="221" type="curve" smooth="yes"/>
      <point x="263" y="686" type="line"/>
      <point x="52" y="686" type="line"/>
      <point x="52" y="218" type="line" smooth="yes"/>
      <point x="52" y="79"/>
      <point x="159" y="-10"/>
      <point x="322" y="-10" type="curve" smooth="yes"/>
      <point x="365" y="-10" type="line" smooth="yes"/>
      <point x="528" y="-10"/>
      <point x="635" y="79"/>
      <point x="635" y="218" type="curve" smooth="yes"/>
    </contour>
  </outline>
</glyph>
<glyph name="Uacute" format="1">
  <advance width="687"/>
  <unicode hex="00DA"/>
  <outline>
    <contour>
      <point x="527" y="895" type="line"/>
      <point x="376" y="895" type="line"/>
      <point x="285" y="750" type="line"/>
      <point x="403" y="750" type="line"/>
      <point x="529" y="892" type="line"/>
    </contour>
    <contour>
      <point x="635" y="686" type="line"/>
      <point x="425" y="686" type="line"/>
      <point x="425" y="221" type="line" smooth="yes"/>
      <point x="425" y="177"/>
      <point x="389" y="146"/>
      <point x="344" y="146" type="curve" smooth="yes"/>
      <point x="299" y="146"/>
      <point x="263" y="177"/>
      <point x="263" y="221" type="curve" smooth="yes"/>
      <point x="263" y="686" type="line"/>
      <point x="52" y="686" type="line"/>
      <point x="52" y="218" type="line" smooth="yes"/>
      <point x="52" y="79"/>
      <point x="159" y="-10"/>
      <point x="322" y="-10" type="curve" smooth="yes"/>
      <point x="365" y="-10" type="line" smooth="yes"/>
      <point x="528" y="-10"/>
      <point x="635" y="79"/>
      <point x="635" y="218" type="curve" smooth="yes"/>
    </contour>
  </outline>
</glyph>
<glyph name="Udieresis" format="1">
  <advance width="687"/>
  <unicode hex="00DC"/>
  <outline>
    <contour>
      <point x="311" y="897" type="line"/>
      <point x="159" y="897" type="line"/>
      <point x="159" y="750" type="line"/>
      <point x="311" y="750" type="line"/>
    </contour>
    <contour>
      <point x="531" y="897" type="line"/>
      <point x="379" y="897" type="line"/>
      <point x="379" y="750" type="line"/>
      <point x="531" y="750" type="line"/>
    </contour>
    <contour>
      <point x="635" y="686" type="line"/>
      <point x="425" y="686" type="line"/>
      <point x="425" y="221" type="line" smooth="yes"/>
      <point x="425" y="177"/>
      <point x="389" y="146"/>
      <point x="344" y="146" type="curve" smooth="yes"/>
      <point x="299" y="146"/>
      <point x="263" y="177"/>
      <point x="263" y="221" type="curve" smooth="yes"/>
      <point x="263" y="686" type="line"/>
      <point x="52" y="686" type="line"/>
      <point x="52" y="218" type="line" smooth="yes"/>
      <point x="52" y="79"/>
      <point x="159" y="-10"/>
      <point x="322" y="-10" type="curve" smooth="yes"/>
      <point x="365" y="-10" type="line" smooth="yes"/>
      <point x="528" y="-10"/>
      <point x="635" y="79"/>
      <point x="635" y="218" type="curve" smooth="yes"/>
    </contour>
  </outline>
</glyph>
<glyph name="atilde" format="1">
  <advance width="624"/>
  <unicode hex="00E3"/>
  <outline>
    <contour>
      <point x="442" y="720" type="line"/>
      <point x="435" y="697"/>
      <point x="417" y="680"/>
      <point x="392" y="680" type="curve" smooth="yes"/>
      <point x="339" y="680"/>
      <point x="283" y="720"/>
      <point x="219" y="720" type="curve" smooth="yes"/>
      <point x="142" y="720"/>
      <point x="79" y="649"/>
      <point x="79" y="577" type="curve"/>
      <point x="160" y="577" type="line"/>
      <point x="167" y="600"/>
      <point x="185" y="617"/>
      <point x="210" y="617" type="curve" smooth="yes"/>
      <point x="223" y="617"/>
      <point x="237" y="614"/>
      <point x="250" y="610" type="curve" smooth="yes"/>
      <point x="292" y="596" type="line" smooth="yes"/>
      <point x="320" y="586"/>
      <point x="351" y="577"/>
      <point x="383" y="577" type="curve" smooth="yes"/>
      <point x="460" y="577"/>
      <point x="523" y="648"/>
      <point x="523" y="720" type="curve"/>
    </contour>
    <contour>
      <point x="279" y="521" type="line" smooth="yes"/>
      <point x="131" y="521"/>
      <point x="39" y="453"/>
      <point x="39" y="368" type="curve" smooth="yes"/>
      <point x="39" y="362"/>
      <point x="39" y="357"/>
      <point x="40" y="354" type="curve"/>
      <point x="230" y="354" type="line"/>
      <point x="230" y="358" type="line" smooth="yes"/>
      <point x="230" y="386"/>
      <point x="265" y="405"/>
      <point x="294" y="405" type="curve" smooth="yes"/>
      <point x="330" y="405"/>
      <point x="359" y="384"/>
      <point x="359" y="345" type="curve" smooth="yes"/>
      <point x="359" y="316" type="line"/>
      <point x="151" y="316"/>
      <point x="24" y="285"/>
      <point x="24" y="143" type="curve" smooth="yes"/>
      <point x="24" y="7"/>
      <point x="121" y="-10"/>
      <point x="204" y="-10" type="curve" smooth="yes"/>
      <point x="286" y="-10"/>
      <point x="334" y="31"/>
      <point x="369" y="71" type="curve"/>
      <point x="380" y="23"/>
      <point x="427" y="-10"/>
      <point x="516" y="-10" type="curve" smooth="yes"/>
      <point x="568" y="-10"/>
      <point x="599" y="0"/>
      <point x="617" y="13" type="curve"/>
      <point x="617" y="120" type="line"/>
      <point x="606" y="114"/>
      <point x="594" y="111"/>
      <point x="582" y="111" type="curve" smooth="yes"/>
      <point x="567" y="111"/>
      <point x="551" y="121"/>
      <point x="551" y="148" type="curve" smooth="yes"/>
      <point x="551" y="359" type="line" smooth="yes"/>
      <point x="551" y="451"/>
      <point x="473" y="521"/>
      <point x="312" y="521" type="curve" smooth="yes"/>
    </contour>
    <contour>
      <point x="359" y="181" type="line" smooth="yes"/>
      <point x="359" y="138"/>
      <point x="327" y="111"/>
      <point x="291" y="111" type="curve" smooth="yes"/>
      <point x="260" y="111"/>
      <point x="231" y="120"/>
      <point x="231" y="159" type="curve" smooth="yes"/>
      <point x="231" y="198"/>
      <point x="267" y="225"/>
      <point x="359" y="225" type="curve"/>
    </contour>
  </outline>
</glyph>
<glyph name="adieresis" format="1">
  <advance width="624"/>
  <unicode hex="00E4"/>
  <outline>
    <contour>
      <point x="263" y="720" type="line"/>
      <point x="111" y="720" type="line"/>
      <point x="111" y="573" type="line"/>
      <point x="263" y="573" type="line"/>
    </contour>
    <contour>
      <point x="483" y="720" type="line"/>
      <point x="331" y="720" type="line"/>
      <point x="331" y="573" type="line"/>
      <point x="483" y="573" type="line"/>
    </contour>
    <contour>
      <point x="279" y="521" type="line" smooth="yes"/>
      <point x="131" y="521"/>
      <point x="39" y="453"/>
      <point x="39" y="368" type="curve" smooth="yes"/>
      <point x="39" y="362"/>
      <point x="39" y="357"/>
      <point x="40" y="354" type="curve"/>
      <point x="230" y="354" type="line"/>
      <point x="230" y="358" type="line" smooth="yes"/>
      <point x="230" y="386"/>
      <point x="265" y="405"/>
      <point x="294" y="405" type="curve" smooth="yes"/>
      <point x="330" y="405"/>
      <point x="359" y="384"/>
      <point x="359" y="345" type="curve" smooth="yes"/>
      <point x="359" y="316" type="line"/>
      <point x="151" y="316"/>
      <point x="24" y="285"/>
      <point x="24" y="143" type="curve" smooth="yes"/>
      <point x="24" y="7"/>
      <point x="121" y="-10"/>
      <point x="204" y="-10" type="curve" smooth="yes"/>
      <point x="286" y="-10"/>
      <point x="334" y="31"/>
      <point x="369" y="71" type="curve"/>
      <point x="380" y="23"/>
      <point x="427" y="-10"/>
      <point x="516" y="-10" type="curve" smooth="yes"/>
      <point x="568" y="-10"/>
      <point x="599" y="0"/>
      <point x="617" y="13" type="curve"/>
      <point x="617" y="120" type="line"/>
      <point x="606" y="114"/>
      <point x="594" y="111"/>
      <point x="582" y="111" type="curve" smooth="yes"/>
      <point x="567" y="111"/>
      <point x="551" y="121"/>
      <point x="551" y="148" type="curve" smooth="yes"/>
      <point x="551" y="359" type="line" smooth="yes"/>
      <point x="551" y="451"/>
      <point x="473" y="521"/>
      <point x="312" y="521" type="curve" smooth="yes"/>
    </contour>
    <contour>
      <point x="359" y="181" type="line" smooth="yes"/>
      <point x="359" y="138"/>
      <point x="327" y="111"/>
      <point x="291" y="111" type="curve" smooth="yes"/>
      <point x="260" y="111"/>
      <point x="231" y="120"/>
      <point x="231" y="159" type="curve" smooth="yes"/>
      <point x="231" y="198"/>
      <point x="267" y="225"/>
      <point x="359" y="225" type="curve"/>
    </contour>
  </outline>
</glyph>
<glyph name="aring" format="1">
  <advance width="624"/>
  <unicode hex="00E5"/>
  <outline>
    <contour>
      <point x="240" y="760"/>
      <point x="195" y="715"/>
      <point x="195" y="659" type="curve" smooth="yes"/>
      <point x="195" y="602"/>
      <point x="241" y="559"/>
      <point x="296" y="559" type="curve" smooth="yes"/>
      <point x="352" y="559"/>
      <point x="397" y="604"/>
      <point x="397" y="659" type="curve" smooth="yes"/>
      <point x="397" y="715"/>
      <point x="351" y="760"/>
      <point x="296" y="760" type="curve" smooth="yes"/>
    </contour>
    <contour>
      <point x="315" y="694"/>
      <point x="331" y="679"/>
      <point x="331" y="660" type="curve" smooth="yes"/>
      <point x="331" y="640"/>
      <point x="316" y="624"/>
      <point x="296" y="624" type="curve" smooth="yes"/>
      <point x="277" y="624"/>
      <point x="261" y="639"/>
      <point x="261" y="658" type="curve" smooth="yes"/>
      <point x="261" y="678"/>
      <point x="276" y="694"/>
      <point x="296" y="694" type="curve" smooth="yes"/>
    </contour>
    <contour>
      <point x="279" y="521" type="line" smooth="yes"/>
      <point x="131" y="521"/>
      <point x="39" y="453"/>
      <point x="39" y="368" type="curve" smooth="yes"/>
      <point x="39" y="362"/>
      <point x="39" y="357"/>
      <point x="40" y="354" type="curve"/>
      <point x="230" y="354" type="line"/>
      <point x="230" y="358" type="line" smooth="yes"/>
      <point x="230" y="386"/>
      <point x="265" y="405"/>
      <point x="294" y="405" type="curve" smooth="yes"/>
      <point x="330" y="405"/>
      <point x="359" y="384"/>
      <point x="359" y="345" type="curve" smooth="yes"/>
      <point x="359" y="316" type="line"/>
      <point x="151" y="316"/>
      <point x="24" y="285"/>
      <point x="24" y="143" type="curve" smooth="yes"/>
      <point x="24" y="7"/>
      <point x="121" y="-10"/>
      <point x="204" y="-10" type="curve" smooth="yes"/>
      <point x="286" y="-10"/>
      <point x="334" y="31"/>
      <point x="369" y="71" type="curve"/>
      <point x="380" y="23"/>
      <point x="427" y="-10"/>
      <point x="516" y="-10" type="curve" smooth="yes"/>
      <point x="568" y="-10"/>
      <point x="599" y="0"/>
      <point x="617" y="13" type="curve"/>
      <point x="617" y="120" type="line"/>
      <point x="606" y="114"/>
      <point x="594" y="111"/>
      <point x="582" y="111" type="curve" smooth="yes"/>
      <point x="567" y="111"/>
      <point x="551" y="121"/>
      <point x="551" y="148" type="curve" smooth="yes"/>
      <point x="551" y="359" type="line" smooth="yes"/>
      <point x="551" y="451"/>
      <point x="473" y="521"/>
      <point x="312" y="521" type="curve" smooth="yes"/>
    </contour>
    <contour>
      <point x="359" y="181" type="line" smooth="yes"/>
      <point x="359" y="138"/>
      <point x="327" y="111"/>
      <point x="291" y="111" type="curve" smooth="yes"/>
      <point x="260" y="111"/>
      <point x="231" y="120"/>
      <point x="231" y="159" type="curve" smooth="yes"/>
      <point x="231" y="198"/>
      <point x="267" y="225"/>
      <point x="359" y="225" type="curve"/>
    </contour>
  </outline>
</glyph>
<glyph name="icircumflex" format="1">
  <advance width="297"/>
  <unicode hex="00EE"/>
  <outline>
    <contour>
      <point x="213" y="720" type="line"/>
      <point x="85" y="720" type="line"/>
      <point x="-54" y="575" type="line"/>
      <point x="74" y="575" type="line"/>
      <point x="148" y="652" type="line"/>
      <point x="222" y="575" type="line"/>
      <point x="352" y="575" type="line"/>
    </contour>
    <contour>
      <point x="247" y="510" type="line"/>
      <point x="50" y="510" type="line"/>
      <point x="50" y="0" type="line"/>
      <point x="247" y="0" type="line"/>
    </contour>
  </outline>
</glyph>
<glyph name="idieresis" format="1">
  <advance width="297"/>
  <unicode hex="00EF"/>
  <outline>
    <contour>
      <point x="115" y="720" type="line"/>
      <point x="-37" y="720" type="line"/>
      <point x="-37" y="573" type="line"/>
      <point x="115" y="573" type="line"/>
    </contour>
    <contour>
      <point x="335" y="720" type="line"/>
      <point x="183" y="720" type="line"/>
      <point x="183" y="573" type="line"/>
      <point x="335" y="573" type="line"/>
    </contour>
    <contour>
      <point x="247" y="510" type="line"/>
      <point x="50" y="510" type="line"/>
      <point x="50" y="0" type="line"/>
      <point x="247" y="0" type="line"/>
    </contour>
  </outline>
</glyph>
<glyph name="otilde" format="1">
  <advance width="614"/>
  <unicode hex="00F5"/>
  <outline>
    <contour>
      <point x="291" y="521" type="line" smooth="yes"/>
      <point x="139" y="521"/>
      <point x="26" y="417"/>
      <point x="26" y="266" type="curve" smooth="yes"/>
      <point x="26" y="245" type="line" smooth="yes"/>
      <point x="26" y="95"/>
      <point x="139" y="-10"/>
      <point x="291" y="-10" type="curve" smooth="yes"/>
      <point x="323" y="-10" type="line" smooth="yes"/>
      <point x="475" y="-10"/>
      <point x="588" y="93"/>
      <point x="588" y="245" type="curve" smooth="yes"/>
      <point x="588" y="266" type="line" smooth="yes"/>
      <point x="588" y="417"/>
      <point x="475" y="521"/>
      <point x="323" y="521" type="curve" smooth="yes"/>
    </contour>
    <contour>
      <point x="346" y="400"/>
      <point x="376" y="369"/>
      <point x="376" y="330" type="curve" smooth="yes"/>
      <point x="376" y="181" type="line" smooth="yes"/>
      <point x="376" y="142"/>
      <point x="346" y="111"/>
      <point x="307" y="111" type="curve" smooth="yes"/>
      <point x="268" y="111"/>
      <point x="238" y="142"/>
      <point x="238" y="181" type="curve" smooth="yes"/>
      <point x="238" y="330" type="line" smooth="yes"/>
      <point x="238" y="369"/>
      <point x="268" y="400"/>
      <point x="307" y="400" type="curve" smooth="yes"/>
    </contour>
    <contour>
      <point x="449" y="720" type="line"/>
      <point x="442" y="697"/>
      <point x="424" y="680"/>
      <point x="399" y="680" type="curve" smooth="yes"/>
      <point x="346" y="680"/>
      <point x="290" y="720"/>
      <point x="226" y="720" type="curve" smooth="yes"/>
      <point x="149" y="720"/>
      <point x="86" y="649"/>
      <point x="86" y="577" type="curve"/>
      <point x="167" y="577" type="line"/>
      <point x="174" y="600"/>
      <point x="192" y="617"/>
      <point x="217" y="617" type="curve" smooth="yes"/>
      <point x="230" y="617"/>
      <point x="244" y="615"/>
      <point x="258" y="610" type="curve" smooth="yes"/>
      <point x="300" y="596" type="line" smooth="yes"/>
      <point x="328" y="587"/>
      <point x="358" y="577"/>
      <point x="390" y="577" type="curve" smooth="yes"/>
      <point x="467" y="577"/>
      <point x="530" y="648"/>
      <point x="530" y="720" type="curve"/>
    </contour>
  </outline>
</glyph>
<glyph name="divide" format="1">
  <advance width="615"/>
  <unicode hex="00F7"/>
  <outline>
    <contour>
      <point x="51" y="321" type="line"/>
      <point x="51" y="193" type="line"/>
      <point x="563" y="193" type="line"/>
      <point x="563" y="321" type="line"/>
    </contour>
    <contour>
      <point x="245" y="144" type="line"/>
      <point x="245" y="17" type="line"/>
      <point x="372" y="17" type="line"/>
      <point x="372" y="144" type="line"/>
    </contour>
    <contour>
      <point x="245" y="496" type="line"/>
      <point x="245" y="369" type="line"/>
      <point x="372" y="369" type="line"/>
      <point x="372" y="496" type="line"/>
    </contour>
  </outline>
</glyph>
<glyph name="yacute" format="1">
  <advance width="553"/>
  <unicode hex="00FD"/>
  <outline>
    <contour>
      <point x="361" y="511" type="line"/>
      <point x="294" y="246" type="line"/>
      <point x="286" y="246" type="line"/>
      <point x="207" y="511" type="line"/>
      <point x="-4" y="511" type="line"/>
      <point x="184" y="15" type="line"/>
      <point x="178" y="-10"/>
      <point x="168" y="-57"/>
      <point x="106" y="-57" type="curve" smooth="yes"/>
      <point x="78" y="-57"/>
      <point x="46" y="-50"/>
      <point x="31" y="-43" type="curve"/>
      <point x="31" y="-172" type="line"/>
      <point x="54" y="-183"/>
      <point x="87" y="-187"/>
      <point x="130" y="-187" type="curve" smooth="yes"/>
      <point x="255" y="-187"/>
      <point x="338" y="-91"/>
      <point x="384" y="36" type="curve" smooth="yes"/>
      <point x="556" y="511" type="line"/>
    </contour>
    <contour>
      <point x="313" y="720" type="line"/>
      <point x="222" y="575" type="line"/>
      <point x="340" y="575" type="line"/>
      <point x="466" y="717" type="line"/>
      <point x="464" y="720" type="line"/>
    </contour>
  </outline>
</glyph>
<glyph name="dotlessi" format="1">
  <advance width="297"/>
  <unicode hex="0131"/>
  <outline>
    <contour>
      <point x="247" y="510" type="line"/>
      <point x="50" y="510" type="line"/>
      <point x="50" y="0" type="line"/>
      <point x="247" y="0" type="line"/>
    </contour>
    <contour>
      <point x="237" y="10" type="move" name="ogonek"/>
    </contour>
    <contour>
      <point x="149" y="511" type="move" name="top"/>
    </contour>
  </outline>
</glyph>
<glyph name="lslash" format="1">
  <advance width="349"/>
  <unicode hex="0142"/>
  <outline>
    <contour>
      <point x="76" y="720" type="line"/>
      <point x="76" y="389" type="line"/>
      <point x="17" y="360" type="line"/>
      <point x="17" y="255" type="line"/>
      <point x="76" y="285" type="line"/>
      <point x="76" y="0" type="line"/>
      <point x="274" y="0" type="line"/>
      <point x="274" y="384" type="line"/>
      <point x="335" y="414" type="line"/>
      <point x="335" y="519" type="line"/>
      <point x="274" y="488" type="line"/>
      <point x="274" y="720" type="line"/>
    </contour>
  </outline>
</glyph>
<glyph name="Zcaron" format="1">
  <advance width="608"/>
  <unicode hex="017D"/>
  <outline>
    <contour>
      <point x="511" y="895" type="line"/>
      <point x="383" y="895" type="line"/>
      <point x="309" y="818" type="line"/>
      <point x="235" y="895" type="line"/>
      <point x="105" y="895" type="line"/>
      <point x="244" y="750" type="line"/>
      <point x="372" y="750" type="line"/>
    </contour>
    <contour>
      <point x="577" y="686" type="line"/>
      <point x="38" y="686" type="line"/>
      <point x="38" y="526" type="line"/>
      <point x="282" y="526" type="line"/>
      <point x="14" y="61" type="line"/>
      <point x="14" y="0" type="line"/>
      <point x="585" y="0" type="line"/>
      <point x="585" y="161" type="line"/>
      <point x="314" y="161" type="line"/>
      <point x="577" y="625" type="line"/>
    </contour>
  </outline>
</glyph>
<glyph name="florin" format="1">
  <advance width="426"/>
  <unicode hex="0192"/>
  <outline>
    <contour>
      <point x="212" y="728"/>
      <point x="132" y="685"/>
      <point x="117" y="577" type="curve" smooth="yes"/>
      <point x="108" y="511" type="line"/>
      <point x="44" y="511" type="line"/>
      <point x="24" y="369" type="line"/>
      <point x="88" y="369" type="line"/>
      <point x="35" y="-4" type="line" smooth="yes"/>
      <point x="27" y="-59"/>
      <point x="-5" y="-62"/>
      <point x="-30" y="-62" type="curve" smooth="yes"/>
      <point x="-45" y="-62"/>
      <point x="-76" y="-57"/>
      <point x="-91" y="-52" type="curve"/>
      <point x="-106" y="-162" type="line"/>
      <point x="-74" y="-175"/>
      <point x="-11" y="-184"/>
      <point x="25" y="-184" type="curve" smooth="yes"/>
      <point x="134" y="-184"/>
      <point x="214" y="-141"/>
      <point x="229" y="-33" type="curve" smooth="yes"/>
      <point x="286" y="369" type="line"/>
      <point x="406" y="369" type="line"/>
      <point x="426" y="511" type="line"/>
      <point x="306" y="511" type="line"/>
      <point x="311" y="548" type="line" smooth="yes"/>
      <point x="318" y="603"/>
      <point x="351" y="606"/>
      <point x="376" y="606" type="curve" smooth="yes"/>
      <point x="390" y="606"/>
      <point x="424" y="601"/>
      <point x="437" y="596" type="curve"/>
      <point x="452" y="706" type="line"/>
      <point x="420" y="719"/>
      <point x="357" y="728"/>
      <point x="321" y="728" type="curve" smooth="yes"/>
    </contour>
  </outline>
</glyph>
<glyph name="ring" format="1">
  <advance width="340"/>
  <unicode hex="02DA"/>
  <outline>
    <contour>
      <point x="114" y="746"/>
      <point x="69" y="701"/>
      <point x="69" y="645" type="curve" smooth="yes"/>
      <point x="69" y="588"/>
      <point x="115" y="545"/>
      <point x="170" y="545" type="curve" smooth="yes"/>
      <point x="226" y="545"/>
      <point x="271" y="590"/>
      <point x="271" y="645" type="curve" smooth="yes"/>
      <point x="271" y="701"/>
      <point x="225" y="746"/>
      <point x="170" y="746" type="curve" smooth="yes"/>
    </contour>
    <contour>
      <point x="189" y="680"/>
      <point x="205" y="665"/>
      <point x="205" y="646" type="curve" smooth="yes"/>
      <point x="205" y="626"/>
      <point x="190" y="610"/>
      <point x="170" y="610" type="curve" smooth="yes"/>
      <point x="151" y="610"/>
      <point x="135" y="625"/>
      <point x="135" y="644" type="curve" smooth="yes"/>
      <point x="135" y="664"/>
      <point x="150" y="680"/>
      <point x="170" y="680" type="curve" smooth="yes"/>
    </contour>
    <contour>
      <point x="170" y="511" type="move" name="_top"/>
    </contour>
  </outline>
</glyph>
<glyph name="emdash" format="1">
  <advance width="1008"/>
  <unicode hex="2014"/>
  <outline>
    <contour>
      <point x="49" y="354" type="line"/>
      <point x="49" y="196" type="line"/>
      <point x="959" y="196" type="line"/>
      <point x="959" y="354" type="line"/>
    </contour>
  </outline>
</glyph>
<glyph name="quoteleft" format="1">
  <advance width="273"/>
  <unicode hex="2018"/>
  <outline>
    <contour>
      <point x="92" y="686" type="line"/>
      <point x="42" y="499" type="line"/>
      <point x="42" y="338" type="line"/>
      <point x="233" y="338" type="line"/>
      <point x="233" y="521" type="line"/>
      <point x="149" y="521" type="line"/>
      <point x="186" y="686" type="line"/>
    </contour>
  </outline>
</glyph>
<glyph name="quoteright" format="1">
  <advance width="266"/>
  <unicode hex="2019"/>
  <outline>
    <contour>
      <point x="37" y="686" type="line"/>
      <point x="37" y="503" type="line"/>
      <point x="121" y="503" type="line"/>
      <point x="84" y="338" type="line"/>
      <point x="178" y="338" type="line"/>
      <point x="228" y="525" type="line"/>
      <point x="228" y="686" type="line"/>
    </contour>
  </outline>
</glyph>
<glyph name="quotedblleft" format="1">
  <advance width="514"/>
  <unicode hex="201C"/>
  <outline>
    <contour>
      <point x="286" y="686" type="line"/>
      <point x="286" y="525" type="line"/>
      <point x="336" y="338" type="line"/>
      <point x="430" y="338" type="line"/>
      <point x="393" y="503" type="line"/>
      <point x="477" y="503" type="line"/>
      <point x="477" y="686" type="line"/>
    </contour>
    <contour>
      <point x="38" y="686" type="line"/>
      <point x="38" y="525" type="line"/>
      <point x="88" y="338" type="line"/>
      <point x="182" y="338" type="line"/>
      <point x="145" y="503" type="line"/>
      <point x="229" y="503" type="line"/>
      <point x="229" y="686" type="line"/>
    </contour>
  </outline>
</glyph>
<glyph name="quotedblright" format="1">
  <advance width="514"/>
  <unicode hex="201D"/>
  <outline>
    <contour>
      <point x="285" y="686" type="line"/>
      <point x="285" y="503" type="line"/>
      <point x="369" y="503" type="line"/>
      <point x="332" y="338" type="line"/>
      <point x="426" y="338" type="line"/>
      <point x="476" y="525" type="line"/>
      <point x="476" y="686" type="line"/>
    </contour>
    <contour>
      <point x="37" y="686" type="line"/>
      <point x="37" y="503" type="line"/>
      <point x="121" y="503" type="line"/>
      <point x="84" y="338" type="line"/>
      <point x="178" y="338" type="line"/>
      <point x="228" y="525" type="line"/>
      <point x="228" y="686" type="line"/>
    </contour>
  </outline>
</glyph>
<glyph name="bullet" format="1">
  <advance width="600"/>
  <unicode hex="2022"/>
  <outline>
    <contour>
      <point x="204" y="514"/>
      <point x="128" y="438"/>
      <point x="128" y="343" type="curve" smooth="yes"/>
      <point x="128" y="248"/>
      <point x="204" y="171"/>
      <point x="299" y="171" type="curve" smooth="yes"/>
      <point x="394" y="171"/>
      <point x="471" y="248"/>
      <point x="471" y="343" type="curve" smooth="yes"/>
      <point x="471" y="438"/>
      <point x="394" y="514"/>
      <point x="299" y="514" type="curve" smooth="yes"/>
    </contour>
  </outline>
</glyph>
<glyph name="ellipsis" format="1">
  <advance width="953"/>
  <unicode hex="2026"/>
  <outline>
    <contour>
      <point x="714" y="183" type="line"/>
      <point x="714" y="0" type="line"/>
      <point x="905" y="0" type="line"/>
      <point x="905" y="183" type="line"/>
    </contour>
    <contour>
      <point x="48" y="183" type="line"/>
      <point x="48" y="0" type="line"/>
      <point x="239" y="0" type="line"/>
      <point x="239" y="183" type="line"/>
    </contour>
    <contour>
      <point x="381" y="183" type="line"/>
      <point x="381" y="0" type="line"/>
      <point x="572" y="0" type="line"/>
      <point x="572" y="183" type="line"/>
    </contour>
  </outline>
</glyph>
<glyph name="perthousand" format="1">
  <advance width="1055"/>
  <unicode hex="2030"/>
  <outline>
    <contour>
      <point x="521" y="686" type="line"/>
      <point x="102" y="0" type="line"/>
      <point x="197" y="0" type="line"/>
      <point x="614" y="686" type="line"/>
    </contour>
    <contour>
      <point x="152" y="685" type="line" smooth="yes"/>
      <point x="84" y="685"/>
      <point x="29" y="630"/>
      <point x="29" y="562" type="curve" smooth="yes"/>
      <point x="29" y="460" type="line" smooth="yes"/>
      <point x="29" y="392"/>
      <point x="84" y="337"/>
      <point x="152" y="337" type="curve" smooth="yes"/>
      <point x="174" y="337" type="line" smooth="yes"/>
      <point x="242" y="337"/>
      <point x="298" y="392"/>
      <point x="298" y="460" type="curve" smooth="yes"/>
      <point x="298" y="562" type="line" smooth="yes"/>
      <point x="298" y="630"/>
      <point x="242" y="685"/>
      <point x="174" y="685" type="curve" smooth="yes"/>
    </contour>
    <contour>
      <point x="184" y="614"/>
      <point x="200" y="598"/>
      <point x="200" y="575" type="curve" smooth="yes"/>
      <point x="200" y="448" type="line" smooth="yes"/>
      <point x="200" y="425"/>
      <point x="184" y="409"/>
      <point x="163" y="409" type="curve" smooth="yes"/>
      <point x="143" y="409"/>
      <point x="126" y="425"/>
      <point x="126" y="448" type="curve" smooth="yes"/>
      <point x="126" y="575" type="line" smooth="yes"/>
      <point x="126" y="598"/>
      <point x="143" y="614"/>
      <point x="163" y="614" type="curve" smooth="yes"/>
    </contour>
    <contour>
      <point x="542" y="348" type="line" smooth="yes"/>
      <point x="474" y="348"/>
      <point x="419" y="293"/>
      <point x="419" y="225" type="curve" smooth="yes"/>
      <point x="419" y="123" type="line" smooth="yes"/>
      <point x="419" y="55"/>
      <point x="474" y="-1"/>
      <point x="542" y="-1" type="curve" smooth="yes"/>
      <point x="564" y="-1" type="line" smooth="yes"/>
      <point x="632" y="-1"/>
      <point x="688" y="55"/>
      <point x="688" y="123" type="curve" smooth="yes"/>
      <point x="688" y="225" type="line" smooth="yes"/>
      <point x="688" y="293"/>
      <point x="632" y="348"/>
      <point x="564" y="348" type="curve" smooth="yes"/>
    </contour>
    <contour>
      <point x="574" y="277"/>
      <point x="590" y="260"/>
      <point x="590" y="237" type="curve" smooth="yes"/>
      <point x="590" y="110" type="line" smooth="yes"/>
      <point x="590" y="89"/>
      <point x="574" y="71"/>
      <point x="553" y="71" type="curve" smooth="yes"/>
      <point x="533" y="71"/>
      <point x="516" y="89"/>
      <point x="516" y="110" type="curve" smooth="yes"/>
      <point x="516" y="237" type="line" smooth="yes"/>
      <point x="516" y="260"/>
      <point x="533" y="277"/>
      <point x="553" y="277" type="curve" smooth="yes"/>
    </contour>
    <contour>
      <point x="883" y="348" type="line" smooth="yes"/>
      <point x="815" y="348"/>
      <point x="760" y="293"/>
      <point x="760" y="225" type="curve" smooth="yes"/>
      <point x="760" y="123" type="line" smooth="yes"/>
      <point x="760" y="55"/>
      <point x="815" y="-1"/>
      <point x="883" y="-1" type="curve" smooth="yes"/>
      <point x="905" y="-1" type="line" smooth="yes"/>
      <point x="973" y="-1"/>
      <point x="1029" y="55"/>
      <point x="1029" y="123" type="curve" smooth="yes"/>
      <point x="1029" y="225" type="line" smooth="yes"/>
      <point x="1029" y="293"/>
      <point x="973" y="348"/>
      <point x="905" y="348" type="curve" smooth="yes"/>
    </contour>
    <contour>
      <point x="915" y="277"/>
      <point x="931" y="260"/>
      <point x="931" y="237" type="curve" smooth="yes"/>
      <point x="931" y="110" type="line" smooth="yes"/>
      <point x="931" y="89"/>
      <point x="915" y="71"/>
      <point x="894" y="71" type="curve" smooth="yes"/>
      <point x="874" y="71"/>
      <point x="857" y="89"/>
      <point x="857" y="110" type="curve" smooth="yes"/>
      <point x="857" y="237" type="line" smooth="yes"/>
      <point x="857" y="260"/>
      <point x="874" y="277"/>
      <point x="894" y="277" type="curve" smooth="yes"/>
    </contour>
  </outline>
</glyph>
<glyph name="fraction" format="1">
  <advance width="480"/>
  <unicode hex="2044"/>
  <outline>
    <contour>
      <point x="409" y="686" type="line"/>
      <point x="-11" y="0" type="line"/>
      <point x="78" y="0" type="line"/>
      <point x="495" y="686" type="line"/>
    </contour>
  </outline>
</glyph>
<glyph name="summation" format="1">
  <advance width="713"/>
  <unicode hex="2211"/>
  <outline>
    <contour>
      <point x="41" y="731" type="line"/>
      <point x="41" y="593" type="line"/>
      <point x="285" y="312" type="line"/>
      <point x="28" y="17" type="line"/>
      <point x="28" y="-101" type="line"/>
      <point x="683" y="-101" type="line"/>
      <point x="683" y="80" type="line"/>
      <point x="315" y="80" type="line"/>
      <point x="315" y="85" type="line"/>
      <point x="532" y="337" type="line"/>
      <point x="340" y="552" type="line"/>
      <point x="340" y="556" type="line"/>
      <point x="657" y="556" type="line"/>
      <point x="657" y="731" type="line"/>
    </contour>
  </outline>
</glyph>
<glyph name="radical" format="1">
  <advance width="737"/>
  <unicode hex="221A"/>
  <outline>
    <contour>
      <point x="601" y="829" type="line"/>
      <point x="404" y="124" type="line"/>
      <point x="393" y="89"/>
      <point x="387" y="57"/>
      <point x="382" y="32" type="curve"/>
      <point x="228" y="427" type="line"/>
      <point x="-11" y="328" type="line"/>
      <point x="23" y="236" type="line"/>
      <point x="108" y="271" type="line"/>
      <point x="297" y="-153" type="line"/>
      <point x="457" y="-153" type="line"/>
      <point x="750" y="829" type="line"/>
    </contour>
  </outline>
</glyph>
<glyph name="approxequal" format="1">
  <advance width="615"/>
  <unicode hex="2248"/>
  <outline>
    <contour>
      <point x="561" y="448"/>
      <point x="502" y="404"/>
      <point x="427" y="404" type="curve" smooth="yes"/>
      <point x="339" y="404"/>
      <point x="274" y="470"/>
      <point x="189" y="470" type="curve" smooth="yes"/>
      <point x="112" y="470"/>
      <point x="55" y="423"/>
      <point x="26" y="392" type="curve"/>
      <point x="26" y="266" type="line"/>
      <point x="55" y="297"/>
      <point x="112" y="344"/>
      <point x="189" y="344" type="curve" smooth="yes"/>
      <point x="277" y="344"/>
      <point x="342" y="278"/>
      <point x="427" y="278" type="curve" smooth="yes"/>
      <point x="502" y="278"/>
      <point x="561" y="322"/>
      <point x="590" y="356" type="curve"/>
      <point x="590" y="482" type="line"/>
    </contour>
    <contour>
      <point x="561" y="227"/>
      <point x="502" y="183"/>
      <point x="427" y="183" type="curve" smooth="yes"/>
      <point x="339" y="183"/>
      <point x="274" y="249"/>
      <point x="189" y="249" type="curve" smooth="yes"/>
      <point x="112" y="249"/>
      <point x="55" y="202"/>
      <point x="26" y="171" type="curve"/>
      <point x="26" y="45" type="line"/>
      <point x="55" y="76"/>
      <point x="112" y="123"/>
      <point x="189" y="123" type="curve" smooth="yes"/>
      <point x="277" y="123"/>
      <point x="342" y="57"/>
      <point x="427" y="57" type="curve" smooth="yes"/>
      <point x="502" y="57"/>
      <point x="561" y="101"/>
      <point x="590" y="135" type="curve"/>
      <point x="590" y="261" type="line"/>
    </contour>
  </outline>
</glyph>
<glyph name="lessequal" format="1">
  <advance width="615"/>
  <unicode hex="2264"/>
  <outline>
    <contour>
      <point x="52" y="403" type="line"/>
      <point x="52" y="264" type="line"/>
      <point x="561" y="148" type="line"/>
      <point x="561" y="286" type="line"/>
      <point x="213" y="333" type="line"/>
      <point x="561" y="381" type="line"/>
      <point x="561" y="520" type="line"/>
    </contour>
    <contour>
      <point x="50" y="128" type="line"/>
      <point x="50" y="0" type="line"/>
      <point x="561" y="0" type="line"/>
      <point x="561" y="128" type="line"/>
    </contour>
  </outline>
</glyph>
<glyph name="greaterequal" format="1">
  <advance width="615"/>
  <unicode hex="2265"/>
  <outline>
    <contour>
      <point x="53" y="381" type="line"/>
      <point x="401" y="333" type="line"/>
      <point x="53" y="286" type="line"/>
      <point x="53" y="148" type="line"/>
      <point x="562" y="264" type="line"/>
      <point x="562" y="403" type="line"/>
      <point x="53" y="520" type="line"/>
    </contour>
    <contour>
      <point x="53" y="128" type="line"/>
      <point x="53" y="0" type="line"/>
      <point x="564" y="0" type="line"/>
      <point x="564" y="128" type="line"/>
    </contour>
  </outline>
</glyph>
